<?xml version="1.0" encoding="UTF-8" standalone="no"?>
<!-- Created with Inkscape (http://www.inkscape.org/) -->

<svg
   width="210mm"
   height="297mm"
   viewBox="0 0 210 297"
   version="1.1"
   id="svg1810"
   inkscape:version="1.1.1 (3bf5ae0d25, 2021-09-20)"
   sodipodi:docname="logo-brighter.svg"
   xmlns:inkscape="http://www.inkscape.org/namespaces/inkscape"
   xmlns:sodipodi="http://sodipodi.sourceforge.net/DTD/sodipodi-0.dtd"
   xmlns="http://www.w3.org/2000/svg"
   xmlns:svg="http://www.w3.org/2000/svg">
  <sodipodi:namedview
     id="namedview1812"
     pagecolor="#ffffff"
     bordercolor="#666666"
     borderopacity="1.0"
     inkscape:pageshadow="2"
     inkscape:pageopacity="0.0"
     inkscape:pagecheckerboard="0"
     inkscape:document-units="mm"
     showgrid="false"
     inkscape:snap-global="false"
     inkscape:zoom="4.3520955"
     inkscape:cx="189.44897"
     inkscape:cy="186.23213"
     inkscape:window-width="1920"
     inkscape:window-height="1001"
     inkscape:window-x="-9"
     inkscape:window-y="-9"
     inkscape:window-maximized="1"
     inkscape:current-layer="layer1" />
  <defs
     id="defs1807" />
  <g
     inkscape:label="Layer 1"
     inkscape:groupmode="layer"
     id="layer1">
    <rect
       style="fill:#ffffff;stroke-width:0.268543"
       id="rect5562-77"
       width="2.7881095"
       height="2.8721879"
       x="45.331699"
       y="15.97105"
       rx="0.60000092" />
    <path
       style="fill:#f9f9f9;stroke-width:0.564091"
       d="m 88.703356,335.82649 c -0.561403,-0.22786 -0.705115,-28.5467 -0.705115,-138.94528 0,-125.918599 0.08199,-138.690565 0.892273,-139.001501 1.178823,-0.452357 93.786656,-0.444692 96.049866,0.008 1.59987,0.319974 2.37317,1.444753 8.91981,12.974099 3.94245,6.943064 7.31081,12.615515 7.48526,12.605446 0.17445,-0.01007 3.51737,-5.658032 7.4287,-12.551031 l 7.1115,-12.532724 9.10842,-0.155008 9.10842,-0.155007 -0.14333,66.999826 -0.14332,66.99982 -7.75626,0.15695 -7.75625,0.15694 v -52.47641 c 0,-28.86203 -0.19038,-52.471101 -0.42307,-52.464613 -0.23269,0.0065 -3.97684,6.343689 -8.32035,14.082673 -4.3435,7.73897 -8.02434,14.07969 -8.17964,14.09048 -0.15529,0.0108 -3.83599,-6.2499 -8.17932,-13.91263 l -7.89696,-13.932253 -0.14374,56.545863 -0.14374,56.54586 1.35089,1.24449 c 0.743,0.68446 4.31114,6.51168 7.92923,12.94937 3.61808,6.4377 6.76593,11.7049 6.99522,11.7049 0.22928,0 3.56219,-5.52104 7.40645,-12.26899 3.84426,-6.74794 7.26074,-12.45911 7.59218,-12.6915 0.33144,-0.23238 4.41024,-0.3593 9.06399,-0.28204 l 8.46137,0.14047 0.14335,66.50216 c 0.10493,48.67546 -0.027,66.70743 -0.49214,67.26789 -0.46658,0.5622 -2.32905,0.76572 -7.00733,0.76572 -3.50452,0 -6.77337,-0.15408 -7.26412,-0.3424 -0.80472,-0.3088 -0.89227,-5.45597 -0.89227,-52.46049 0,-28.66495 -0.21537,-52.11809 -0.4786,-52.11809 -0.26323,0 -4.00047,6.21911 -8.30498,13.82024 -4.3045,7.60113 -7.99731,13.82023 -8.20625,13.82023 -0.20894,0 -3.89655,-6.21635 -8.1947,-13.81412 l -7.81481,-13.81412 -0.28205,52.31335 -0.28204,52.31335 -47.66572,0.0982 c -26.21614,0.054 -47.983012,-0.0306 -48.370824,-0.18803 z M 168.0992,268.7895 v -65.15254 h -31.87115 -31.87116 v 65.15254 65.15254 h 31.87116 31.87115 z m -66.01852,60.6769 c 0.90963,-1.69967 0.71901,-7.49049 -0.29419,-8.93703 -0.75449,-1.0772 -1.39506,-1.2537 -4.549812,-1.2537 -5.4771,0 -5.853889,0.34323 -5.853889,5.33258 0,6.07545 -0.114536,5.94925 5.399372,5.94925 4.083839,0 4.792699,-0.14597 5.298519,-1.0911 z m 80.10096,0 c 0.90964,-1.69967 0.71902,-7.49049 -0.29418,-8.93703 -0.77,-1.09932 -1.38124,-1.2537 -4.96401,-1.2537 -2.42579,0 -4.36091,0.27503 -4.76279,0.67691 -0.40773,0.40773 -0.67691,2.38172 -0.67691,4.964 0,2.58229 0.26918,4.55628 0.67691,4.96401 0.41025,0.41025 2.40238,0.67691 5.05698,0.67691 3.75312,0 4.46364,-0.15618 4.964,-1.0911 z m -80.06715,-21.79132 c 0.85448,-2.24746 0.66667,-7.1611 -0.328,-8.58118 -0.76999,-1.09932 -1.38123,-1.2537 -4.964002,-1.2537 -2.425784,0 -4.360908,0.27503 -4.762789,0.67691 -0.904388,0.90439 -0.904388,9.02362 0,9.92801 0.41114,0.41114 2.409892,0.67691 5.090783,0.67691 4.218968,0 4.438168,-0.0639 4.964008,-1.44695 z m 80.06715,0.35585 c 0.94496,-1.76567 0.73355,-8.26825 -0.30249,-9.3043 -1.09661,-1.0966 -8.66817,-1.25984 -9.71849,-0.20952 -0.40773,0.40773 -0.67691,2.38172 -0.67691,4.964 0,2.58229 0.26918,4.55628 0.67691,4.96401 0.41025,0.41025 2.40238,0.67691 5.05698,0.67691 3.75312,0 4.46364,-0.15618 4.964,-1.0911 z m -80.69058,-21.13584 c 0.41659,-0.50195 0.5966,-2.51376 0.49214,-5.49989 l -0.16472,-4.70842 -4.425183,-0.16571 c -2.777056,-0.104 -4.720403,0.0793 -5.217845,0.49213 -1.017287,0.84428 -1.111732,9.00047 -0.115753,9.99645 0.98856,0.98856 8.592511,0.8962 9.431361,-0.11456 z m 80.3964,-0.46223 c 0.99466,-1.42008 1.18247,-6.33372 0.32799,-8.58118 -0.52584,-1.38305 -0.74504,-1.44695 -4.96401,-1.44695 -2.68088,0 -4.67964,0.26577 -5.09078,0.67691 -0.40773,0.40773 -0.67691,2.38172 -0.67691,4.96401 0,2.58228 0.26918,4.55627 0.67691,4.964 0.40188,0.40188 2.337,0.67691 4.76279,0.67691 3.58277,0 4.19401,-0.15438 4.96401,-1.2537 z m -80.10097,-21.43547 c 1.0132,-1.44654 1.20382,-7.23736 0.29419,-8.93703 -0.50582,-0.94513 -1.21468,-1.0911 -5.298519,-1.0911 -5.513147,0 -5.399372,-0.12519 -5.399372,5.94107 0,4.99887 0.324117,5.29895 5.74995,5.32361 3.272911,0.0149 3.892551,-0.14978 4.653751,-1.23655 z m 79.85091,0.12552 c 0.89675,-0.89676 1.12818,-1.88031 1.12818,-4.79478 0,-4.98985 -0.92676,-5.92296 -5.88267,-5.92296 -4.86862,0 -5.39916,0.58201 -5.39916,5.92296 0,5.34095 0.53054,5.92296 5.39916,5.92296 2.87418,0 3.86029,-0.23399 4.75449,-1.12818 z m -79.6542,-25.86185 c 0.10446,-2.98613 -0.0755,-4.99793 -0.49214,-5.49989 -0.83885,-1.01076 -8.442801,-1.10312 -9.431361,-0.11456 -0.730235,0.73024 -0.971876,9.55783 -0.280555,10.24915 0.217996,0.218 2.566026,0.32376 5.217845,0.23504 l 4.821491,-0.16132 z m 80.23225,3.54352 c 0.85448,-2.24746 0.66667,-7.1611 -0.32799,-8.58118 -0.77,-1.09932 -1.38124,-1.2537 -4.96401,-1.2537 -2.42579,0 -4.36091,0.27503 -4.76279,0.67691 -0.40773,0.40773 -0.67691,2.38172 -0.67691,4.96401 0,2.58228 0.26918,4.55627 0.67691,4.964 0.41114,0.41114 2.4099,0.67691 5.09078,0.67691 4.21897,0 4.43817,-0.0639 4.96401,-1.44695 z m -80.72439,-20.77999 c 0.41659,-0.50195 0.5966,-2.51376 0.49214,-5.49989 l -0.16472,-4.70842 -4.425183,-0.16571 c -2.777056,-0.104 -4.720403,0.0793 -5.217845,0.49213 -1.017287,0.84428 -1.111732,9.00047 -0.115753,9.99645 0.98856,0.98856 8.592511,0.8962 9.431361,-0.11456 z m 80.10096,0 c 0.41659,-0.50195 0.59661,-2.51376 0.49214,-5.49989 l -0.16472,-4.70842 -4.42518,-0.16571 c -2.77706,-0.104 -4.7204,0.0793 -5.21785,0.49213 -1.01728,0.84428 -1.11172,9.00047 -0.11575,9.99645 0.98856,0.98856 8.59251,0.8962 9.43136,-0.11456 z m -80.42053,-21.35977 c 0.82121,-0.60048 0.95215,-1.48631 0.81293,-5.49989 l -0.16594,-4.78412 h -5.076824 -5.076821 l -0.165943,4.78412 c -0.199994,5.76583 0.179428,6.21566 5.242764,6.21566 1.898031,0 3.891454,-0.3221 4.429834,-0.71577 z m 67.29721,-6.98865 c -0.20322,-4.23743 -0.3695,-36.09449 -0.3695,-70.79346 V 59.793677 h -31.87115 -31.87116 v 70.793453 70.79346 h 32.24065 32.24066 z m 12.64169,7.12048 c 0.94626,-0.50643 1.0911,-1.21513 1.0911,-5.33902 0,-5.58048 -0.30986,-5.92296 -5.35887,-5.92296 -5.04767,0 -5.35887,0.34348 -5.35887,5.91478 0,3.92576 0.17076,4.84636 0.98716,5.32187 1.29459,0.75402 7.2453,0.77148 8.63948,0.0253 z m -79.12597,-26.48179 c 0.2025,-5.83811 -0.13768,-6.21566 -5.600638,-6.21566 -3.296481,0 -3.926961,0.16865 -4.686961,1.2537 -0.998865,1.42608 -1.1813,6.33681 -0.319613,8.60322 0.550195,1.44712 0.632078,1.46657 5.49989,1.30593 l 4.941382,-0.16307 z m 80.09974,0.0757 c 0.10447,-2.98613 -0.0755,-4.99793 -0.49214,-5.49989 -0.83885,-1.01076 -8.4428,-1.10311 -9.43136,-0.11456 -0.73023,0.73024 -0.97188,9.55783 -0.28055,10.24915 0.21799,0.218 2.56602,0.32376 5.21784,0.23504 l 4.82149,-0.16132 z m -80.66055,-17.12191 c 0.90439,-0.90439 0.90439,-9.02361 0,-9.928 -0.70268,-0.70268 -7.537828,-0.95261 -9.148548,-0.33452 -0.713171,0.27367 -0.892273,1.27007 -0.892273,4.96401 0,2.84246 0.260585,4.88219 0.67691,5.29851 0.399366,0.39937 2.319042,0.67691 4.681957,0.67691 2.362916,0 4.282594,-0.27754 4.681954,-0.67691 z m 80.10097,0 c 0.70428,-0.70428 0.95853,-8.08647 0.33451,-9.71264 -0.26902,-0.70105 -1.22623,-0.89227 -4.46659,-0.89227 -6.01851,0 -5.90875,-0.0986 -5.90875,5.3064 0,2.84246 0.26059,4.88219 0.67691,5.29851 0.39937,0.39937 2.31904,0.67691 4.68196,0.67691 2.36292,0 4.28259,-0.27754 4.68196,-0.67691 z m -80.51515,-21.34249 c 0.93528,-0.50056 1.08986,-1.20539 1.08246,-4.9358 -0.005,-2.39353 -0.21688,-4.6801 -0.47139,-5.08129 -0.33308,-0.52504 -1.792709,-0.6831 -5.209205,-0.56409 l -4.74646,0.16533 -0.16472,4.70843 c -0.104466,2.98613 0.07555,4.99793 0.492139,5.49989 0.786712,0.94793 7.351412,1.09901 9.017176,0.20753 z m 80.10096,0 c 0.9472,-0.50693 1.0911,-1.21552 1.0911,-5.37283 0,-4.62153 -0.0506,-4.80812 -1.44695,-5.33902 -0.79582,-0.30258 -2.55619,-0.55013 -3.91192,-0.55013 -1.35573,0 -3.1161,0.24755 -3.91192,0.55013 -1.39611,0.53079 -1.44695,0.71809 -1.44695,5.33083 0,3.95796 0.16989,4.87966 0.98716,5.35568 1.29459,0.75402 7.2453,0.77148 8.63948,0.0253 z m -79.68678,-22.09254 c 0.90439,-0.90439 0.90439,-9.02362 0,-9.928 -0.40188,-0.40188 -2.337001,-0.67691 -4.762786,-0.67691 -5.040587,0 -5.842126,0.79624 -5.842126,5.80351 0,5.11316 0.369787,5.47831 5.547941,5.47831 2.654596,0 4.646721,-0.26666 5.056971,-0.67691 z m 80.10097,0 c 0.40773,-0.40773 0.67691,-2.38172 0.67691,-4.964 0,-2.58229 -0.26918,-4.55628 -0.67691,-4.964 -0.40188,-0.40188 -2.337,-0.67691 -4.76279,-0.67691 -3.58277,0 -4.19401,0.15437 -4.96401,1.25369 -0.99466,1.42008 -1.18247,6.33373 -0.32799,8.58118 0.52584,1.38306 0.74504,1.44695 4.964,1.44695 2.68089,0 4.67965,-0.26577 5.09079,-0.67691 z M 101.42361,92.398153 c 0.90439,-0.904387 0.90439,-9.023618 0,-9.928006 -0.41025,-0.41025 -2.402375,-0.67691 -5.056971,-0.67691 -5.230666,0 -5.547941,0.334297 -5.547941,5.845582 0,4.895957 0.581452,5.436244 5.850433,5.436244 2.419324,0 4.352859,-0.275283 4.754479,-0.67691 z m 80.10097,0 c 0.40773,-0.407729 0.67691,-2.381718 0.67691,-4.964003 0,-2.582285 -0.26918,-4.556274 -0.67691,-4.964003 -0.41025,-0.41025 -2.40238,-0.67691 -5.05698,-0.67691 -5.23067,0 -5.54794,0.334297 -5.54794,5.845582 0,4.895957 0.58146,5.436244 5.85043,5.436244 2.41933,0 4.35286,-0.275283 4.75449,-0.67691 z M 101.21409,70.753165 c 1.09661,-1.096606 1.25984,-8.668167 0.20952,-9.718487 -0.40773,-0.407729 -2.381715,-0.67691 -4.963999,-0.67691 -2.582285,0 -4.556274,0.269181 -4.964004,0.67691 -0.401627,0.401627 -0.676909,2.335159 -0.676909,4.754483 0,5.314392 0.516843,5.850433 5.640913,5.850433 2.764291,0 4.120999,-0.252946 4.754479,-0.886429 z m 80.10097,0 c 1.0966,-1.096606 1.25984,-8.668167 0.20952,-9.718487 -0.40773,-0.407729 -2.38172,-0.67691 -4.96401,-0.67691 -2.58228,0 -4.55627,0.269181 -4.964,0.67691 -0.40163,0.401627 -0.67691,2.335159 -0.67691,4.754483 0,5.314392 0.51684,5.850433 5.64091,5.850433 2.76429,0 4.12101,-0.252946 4.75449,-0.886429 z"
       id="path154"
       transform="scale(0.26458333)" />
    <path
       style="fill:#f9f9f9;stroke-width:0.564091"
       d="m 251.71578,335.72726 c -0.55553,-0.35261 2.05529,-15.10825 11.70101,-66.13107 6.82885,-36.12245 12.55143,-66.25565 12.71684,-66.96266 0.29669,-1.26806 0.40182,-1.28335 7.75915,-1.12819 l 7.4584,0.1573 12.6368,66.75912 c 10.48308,55.38121 12.50217,66.84437 11.8469,67.25925 -1.02913,0.6516 -13.5255,0.65112 -14.55478,-5.4e-4 -0.47567,-0.30117 -1.37964,-3.61319 -2.26856,-8.31171 l -1.47778,-7.81104 -13.65376,-0.15103 -13.65376,-0.15102 -0.27917,1.2792 c -0.15355,0.70357 -0.82829,4.19838 -1.49943,7.76626 -0.7453,3.96212 -1.562,6.7615 -2.09826,7.19217 -0.99477,0.79887 -13.43035,0.99769 -14.6336,0.23396 z m 41.28351,-33.15263 c 0.49075,-0.18832 0.89227,-0.76469 0.89227,-1.28081 0,-0.51612 -1.87044,-10.79739 -4.15654,-22.84725 -4.28219,-22.5712 -4.69436,-23.90356 -6.9508,-22.4689 -0.3694,0.23487 -2.59832,10.5396 -4.95313,22.89939 -3.30014,17.32151 -4.13239,22.65201 -3.63099,23.25616 0.50335,0.6065 2.60231,0.7838 9.27871,0.7838 4.74551,0 9.02973,-0.15407 9.52048,-0.34239 z"
       id="path193"
       transform="scale(0.26458333)" />
    <path
       style="fill:#f9f9f9;stroke-width:0.564091"
       d="m 358.90308,335.82482 c -0.5578,-0.22508 -0.70511,-12.64884 -0.70511,-59.46709 v -59.18258 h -12.41001 -12.41001 v -7.83693 c 0,-6.62588 0.13789,-7.88984 0.89228,-8.17932 1.16563,-0.4473 62.4844,-0.4473 63.65004,0 0.75439,0.28948 0.89227,1.55344 0.89227,8.17932 v 7.83693 h -12.41001 -12.41 v 59.16923 c 0,53.43424 -0.0865,59.20242 -0.89228,59.51163 -1.05866,0.40625 -13.17907,0.37962 -14.19717,-0.0312 z"
       id="path232"
       transform="scale(0.26458333)" />
    <path
       style="fill:#f9f9f9;stroke-width:0.564091"
       d="m 358.53413,191.36797 c -0.42525,-1.38104 -25.15618,-132.252684 -25.15618,-133.121955 0,-1.009561 14.85124,-1.012967 15.65104,-0.0036 0.3073,0.387813 3.79591,18.093228 7.75248,39.345367 3.95657,21.252138 7.42586,39.084478 7.70953,39.627418 0.55379,1.05995 2.4489,1.33818 3.00342,0.44095 0.18567,-0.30041 3.63834,-17.8789 7.67261,-39.063321 4.03427,-21.184415 7.57259,-39.08826 7.86295,-39.786323 0.51061,-1.227607 0.7779,-1.269205 8.15524,-1.269205 7.26597,0 7.62732,0.05376 7.62732,1.134746 0,1.18708 -24.63138,131.749033 -25.08718,132.977963 -0.19078,0.51438 -2.23963,0.70511 -7.5744,0.70511 -6.47279,0 -7.34779,-0.1134 -7.61683,-0.98716 z"
       id="path271"
       transform="scale(0.26458333)" />
    <path
       style="fill:#f9f9f9;stroke-width:0.564091"
       d="m 276.68678,191.73354 c -1.55125,-0.31063 -4.91275,-1.57338 -7.46999,-2.80613 -8.47405,-4.08499 -15.31045,-12.32323 -17.32759,-20.88071 -1.28014,-5.43087 -1.28441,-81.035398 -0.005,-85.947977 1.43245,-5.499559 4.05911,-9.795517 8.98174,-14.689814 9.08076,-9.028503 20.64545,-11.957765 32.50206,-8.232571 10.5396,3.311408 20.60557,14.39742 22.52648,24.809234 0.33671,1.82508 0.55725,18.382118 0.55224,41.460708 -0.009,42.68734 0.0157,42.35592 -3.73742,49.49822 -3.71817,7.0757 -11.21658,13.38006 -18.77721,15.78709 -4.29045,1.36593 -12.92302,1.86747 -17.24547,1.00195 z m 14.73207,-17.30133 c 3.60443,-1.8662 5.64149,-3.84616 7.22363,-7.02109 l 1.45409,-2.91798 v -39.39375 c 0,-43.77859 0.18374,-41.586537 -3.83516,-45.752277 -7.88593,-8.174047 -21.56665,-6.827417 -27.45982,2.702944 l -1.70436,2.756272 -0.1579,38.967001 c -0.14045,34.66073 -0.0569,39.2787 0.75571,41.78746 1.55661,4.80552 4.49507,7.71939 9.77147,9.68972 3.10401,1.15911 11.0311,0.69419 13.95234,-0.8183 z"
       id="path310"
       transform="scale(0.26458333)" />
    <path
       style="fill:#f9f9f9;stroke-width:0.564091"
       d="m 416.11592,191.98365 c -0.70165,-0.70165 -0.43307,-14.58092 0.29627,-15.31026 0.48309,-0.48309 4.03639,-0.67691 12.41001,-0.67691 h 11.7331 V 125.22827 74.46005 h -11.45606 c -8.32174,0 -11.72194,-0.194419 -12.42787,-0.710609 -0.8486,-0.620509 -0.95167,-1.63972 -0.81293,-8.038301 l 0.15889,-7.327691 32.57627,-0.145605 32.57627,-0.145606 v 7.841509 c 0,6.630062 -0.13785,7.894407 -0.89227,8.183906 -0.49075,0.188319 -6.07525,0.342397 -12.41001,0.342397 h -11.51774 v 50.75722 50.75721 l 12.26899,0.15203 12.26899,0.15202 v 7.89728 7.89727 l -32.19564,0.1456 c -17.7076,0.0801 -32.36692,-0.0257 -32.57627,-0.23503 z"
       id="path349"
       transform="scale(0.26458333)" />
    <path
       style="fill:#f9f9f9;stroke-width:0.564091"
       d="m 444.50394,335.64539 c -12.91926,-1.68448 -23.3698,-10.28534 -27.4296,-22.57472 -0.94279,-2.85392 -1.03955,-6.21901 -1.20758,-41.99881 -0.12307,-26.20369 0.0183,-40.19183 0.43331,-42.86642 2.26304,-14.58563 17.04888,-26.80526 32.43455,-26.80526 14.97754,0 29.47718,12.41986 31.96701,27.38176 1.01507,6.09977 1.22414,5.94028 -7.54503,5.75547 l -7.47196,-0.15748 -0.88877,-3.40213 c -3.23154,-12.37003 -16.71095,-17.16963 -27.00268,-9.6148 -1.85208,1.35955 -3.28511,3.035 -4.24722,4.96572 l -1.45204,2.91386 v 39.00941 c 0,41.32788 -0.0217,40.97177 2.72781,44.85783 3.04521,4.30408 7.67069,6.41156 13.91288,6.33904 4.75335,-0.0552 7.35198,-1.07961 10.79912,-4.25707 2.87691,-2.65184 3.93474,-4.43861 5.26332,-8.89022 l 0.92595,-3.1025 7.72343,-0.15694 7.72343,-0.15694 v 2.15376 c 0,2.95674 -1.42156,8.20673 -3.32034,12.2624 -4.00009,8.54395 -13.24344,16.04489 -21.83304,17.71741 -4.40342,0.85741 -8.17011,1.06243 -11.51255,0.62663 z"
       id="path388"
       transform="scale(0.26458333)" />
    <path
       style="fill:#f9f9f9;stroke-width:0.564091"
       d="m 498.97904,335.31198 c -0.79572,-0.79572 -0.88643,-7.62451 -0.88643,-66.732 0,-50.4611 0.15816,-66.00373 0.67691,-66.52248 0.45538,-0.45538 3.02015,-0.67691 7.83693,-0.67691 6.00863,0 7.21507,0.14349 7.50241,0.89227 0.18832,0.49075 0.3424,13.81741 0.3424,29.6148 v 28.72252 h 16.63566 16.63566 l 0.14606,-29.47377 0.14605,-29.47377 h 7.61523 7.61523 l 0.14335,66.81009 c 0.11387,53.07547 -0.002,66.90243 -0.56409,67.25925 -1.1713,0.74366 -13.64282,0.56156 -14.41486,-0.21048 -0.50889,-0.50889 -0.67691,-7.85967 -0.67691,-29.61479 v -28.93789 h -16.64069 -16.64069 v 28.93789 c 0,21.75512 -0.16802,29.1059 -0.67691,29.61479 -0.44953,0.44953 -2.89925,0.67691 -7.2929,0.67691 -5.26241,0 -6.79734,-0.18136 -7.50241,-0.88643 z"
       id="path427"
       transform="scale(0.26458333)" />
    <path
       style="fill:#f9f9f9;stroke-width:0.564091"
       d="m 498.35279,191.65002 c -0.14767,-0.38782 -0.20316,-30.53145 -0.12331,-66.98584 l 0.14518,-66.280731 32.08975,-0.145715 c 23.23081,-0.105488 32.30193,0.03037 32.85831,0.492138 0.57273,0.475322 0.76857,2.411904 0.76857,7.600078 0,6.306024 -0.10284,7.017261 -1.0911,7.546162 -0.7031,0.376289 -9.62943,0.583938 -25.10206,0.583938 h -24.01096 v 21.146387 21.146383 l 20.44831,0.14807 20.4483,0.14805 0.15652,8.0383 0.1565,8.0383 h -20.60481 -20.60482 v 21.43547 21.43547 h 24.42515 c 18.24522,0 24.59642,0.17127 25.10206,0.67691 0.71144,0.71145 0.99116,13.07827 0.33451,14.78947 -0.30672,0.7993 -3.71755,0.89227 -32.735,0.89227 -25.39482,0 -32.4506,-0.15233 -32.6611,-0.70511 z"
       id="path466"
       transform="scale(0.26458333)" />
    <path
       style="fill:#f9f9f9;stroke-width:0.564091"
       d="m 663.48418,335.5215 c -0.51882,-0.51882 -0.67691,-16.19128 -0.67691,-67.10702 v -66.4301 l 1.21453,-0.65 c 0.87157,-0.46645 5.76977,-0.57173 17.34581,-0.37282 14.12512,0.2427 16.68735,0.4266 20.60268,1.47871 7.58733,2.03882 13.5618,6.02477 18.182,12.13036 5.49547,7.26225 8.06876,15.01649 8.07144,24.32203 0.003,10.4715 -3.55925,19.10202 -10.96449,26.56443 -2.49144,2.51068 -5.8623,5.30293 -7.4908,6.20501 -1.6285,0.90207 -2.96116,1.84646 -2.96148,2.09865 -3.1e-4,0.25217 4.82614,14.0841 10.72545,30.73761 5.89932,16.65351 10.60335,30.59882 10.45339,30.98958 -0.41014,1.06882 -15.49489,0.99716 -16.96882,-0.0806 -0.72126,-0.52739 -4.47467,-10.35156 -11.26071,-29.47377 l -10.17884,-28.68269 -5.4878,-0.16145 -5.48781,-0.16145 v 29.29282 c 0,26.19086 -0.0945,29.32908 -0.89227,29.63522 -1.7048,0.6542 -13.51437,0.37649 -14.22537,-0.33451 z m 35.91663,-76.89856 c 4.48081,-2.01087 9.04975,-6.80949 10.84521,-11.39043 1.80084,-4.59466 1.80084,-12.08503 0,-16.6797 -1.79546,-4.58094 -6.3644,-9.37956 -10.84521,-11.39043 -3.19142,-1.43222 -4.24033,-1.59271 -12.14603,-1.85841 l -8.65296,-0.2908 v 21.87949 21.8795 l 8.65296,-0.29081 c 7.9057,-0.26569 8.95461,-0.42618 12.14603,-1.85841 z"
       id="path505"
       transform="scale(0.26458333)" />
    <path
       style="fill:#f9f9f9;stroke-width:0.564091"
       d="m 581.08076,335.43268 c -0.46513,-0.56044 -0.59707,-18.51894 -0.49214,-66.98584 l 0.14336,-66.22011 h 32.7173 32.71729 v 7.61523 7.61523 l -24.96781,0.1469 -24.96782,0.14689 0.1478,21.28858 0.1478,21.28857 20.27847,0.14827 c 15.36144,0.11232 20.38595,0.31748 20.72172,0.84614 0.65798,1.03596 0.55408,13.28927 -0.12342,14.55518 -0.56071,1.0477 -1.39118,1.0911 -20.87816,1.0911 h -20.29422 l 0.1478,21.29445 0.14781,21.29445 24.82002,0.28204 24.82001,0.28205 0.15834,7.25452 c 0.10625,4.86738 -0.0557,7.51242 -0.49213,8.0383 -0.95626,1.15222 -63.7962,1.16974 -64.75202,0.0181 z"
       id="path544"
       transform="scale(0.26458333)" />
  </g>
</svg>
