<?xml version="1.0" encoding="UTF-8" standalone="no"?>
<!-- Created with Inkscape (http://www.inkscape.org/) -->

<svg
   width="182mm"
   height="86mm"
   viewBox="0 0 182 86"
   version="1.1"
   id="svg1810"
   inkscape:version="1.1.1 (3bf5ae0d25, 2021-09-20)"
   sodipodi:docname="logo-brighter.svg"
   xmlns:inkscape="http://www.inkscape.org/namespaces/inkscape"
   xmlns:sodipodi="http://sodipodi.sourceforge.net/DTD/sodipodi-0.dtd"
   xmlns="http://www.w3.org/2000/svg"
   xmlns:svg="http://www.w3.org/2000/svg">
  <sodipodi:namedview
     id="namedview1812"
     pagecolor="#ffffff"
     bordercolor="#666666"
     borderopacity="1.0"
     inkscape:pageshadow="2"
     inkscape:pageopacity="0.0"
     inkscape:pagecheckerboard="0"
     inkscape:document-units="mm"
     showgrid="false"
     inkscape:snap-global="false"
     inkscape:zoom="2.4865144"
     inkscape:cx="157.04715"
     inkscape:cy="72.591575"
     inkscape:window-width="1920"
     inkscape:window-height="1001"
     inkscape:window-x="-9"
     inkscape:window-y="-9"
     inkscape:window-maximized="1"
     inkscape:current-layer="layer1" />
  <defs
     id="defs1807" />
  <g
     inkscape:label="Layer 1"
     inkscape:groupmode="layer"
     id="layer1">
    <path
       style="fill:#f9f9f9;stroke-width:0.149249"
       d="M 6.6237572,79.915571 C 6.4752193,79.855283 6.4371955,72.36259 6.4371955,43.152966 c 0,-33.315962 0.021693,-36.6952113 0.2360806,-36.7774798 0.3118969,-0.1196861 24.8143859,-0.117658 25.4131929,0.00212 0.423299,0.08466 0.627902,0.3822576 2.360033,3.4327303 1.043107,1.8370185 1.934319,3.3378545 1.980476,3.3351905 0.04616,-0.0027 0.930637,-1.497021 1.96551,-3.3207932 l 1.881584,-3.3159498 2.409936,-0.041013 2.409936,-0.041012 -0.03792,17.727037 -0.03792,17.727035 -2.052177,0.04153 -2.052174,0.04152 V 28.079495 c 0,-7.636412 -0.05037,-13.882978 -0.111937,-13.881262 -0.06157,0.0017 -1.052206,1.678435 -2.201426,3.726041 -1.149218,2.047602 -2.123107,3.725251 -2.164197,3.728106 -0.04109,0.0029 -1.014939,-1.65362 -2.164111,-3.68105 l -2.089404,-3.686242 -0.03803,14.961093 -0.03803,14.961092 0.357423,0.329271 c 0.196586,0.181097 1.140656,1.722882 2.097942,3.426187 0.957284,1.703308 1.790153,3.096922 1.850819,3.096922 0.06066,0 0.942496,-1.460775 1.959623,-3.24617 1.017127,-1.785393 1.921071,-3.296473 2.008764,-3.35796 0.08769,-0.06148 1.166876,-0.09506 2.398181,-0.07462 l 2.238737,0.03717 0.03793,17.595363 c 0.02776,12.878715 -0.0071,17.649674 -0.130212,17.797962 -0.123449,0.148749 -0.616227,0.202597 -1.854022,0.202597 -0.927238,0 -1.792121,-0.04077 -1.921965,-0.09059 -0.212916,-0.0817 -0.23608,-1.443559 -0.23608,-13.880171 0,-7.584268 -0.05698,-13.789578 -0.12663,-13.789578 -0.06965,0 -1.058457,1.645473 -2.197359,3.656605 -1.138899,2.011132 -2.115955,3.656603 -2.171237,3.656603 -0.05528,0 -1.030962,-1.644743 -2.168181,-3.654986 l -2.067668,-3.654986 -0.07463,13.84124 -0.07462,13.84124 -12.611555,0.02598 c -6.936354,0.01429 -12.6955052,-0.0081 -12.7981138,-0.04975 z M 27.630574,62.178701 V 44.940425 h -8.432575 -8.432578 v 17.238276 17.238276 h 8.432578 8.432575 z m -17.4674,16.054096 c 0.240673,-0.449704 0.190238,-1.981858 -0.07784,-2.364589 C 9.8857109,75.583199 9.7162267,75.5365 8.8815319,75.5365 c -1.4491493,0 -1.5488414,0.09081 -1.5488414,1.410912 0,1.607463 -0.030304,1.574072 1.4285838,1.574072 1.0805157,0 1.2680687,-0.03862 1.4018997,-0.288687 z m 21.193379,0 c 0.240675,-0.449704 0.190241,-1.981858 -0.07784,-2.364589 C 31.074984,75.577346 30.91326,75.5365 29.965318,75.5365 c -0.641823,0 -1.153824,0.07277 -1.260154,0.179099 -0.107879,0.107879 -0.1791,0.630164 -0.1791,1.313392 0,0.683231 0.07122,1.205516 0.1791,1.313394 0.108545,0.108545 0.635629,0.179099 1.337992,0.179099 0.993013,0 1.181005,-0.04132 1.313392,-0.288687 z M 10.17212,72.467177 c 0.226081,-0.59464 0.176389,-1.894707 -0.08678,-2.270437 -0.2037262,-0.290862 -0.3654501,-0.331708 -1.3133918,-0.331708 -0.641822,0 -1.1538236,0.07277 -1.2601546,0.179099 -0.239286,0.239287 -0.239286,2.3875 0,2.626786 0.1087808,0.108781 0.6376172,0.179099 1.3469363,0.179099 1.1162686,0 1.1742651,-0.01691 1.3133941,-0.382839 z m 21.184433,0.09415 c 0.250021,-0.467167 0.194085,-2.187641 -0.08003,-2.461762 -0.290145,-0.290142 -2.293453,-0.333333 -2.57135,-0.05544 -0.107879,0.107879 -0.1791,0.630164 -0.1791,1.313392 0,0.683231 0.07122,1.205516 0.1791,1.313394 0.108545,0.108545 0.635629,0.179099 1.337992,0.179099 0.993013,0 1.181005,-0.04132 1.313392,-0.288687 z M 10.00717,66.969138 c 0.110223,-0.132807 0.157851,-0.665099 0.130213,-1.455179 L 10.0938,64.26819 8.9229707,64.224346 c -0.7347627,-0.02752 -1.2489399,0.02098 -1.3805548,0.130209 -0.2691572,0.223382 -0.2941457,2.381374 -0.030626,2.644894 0.2615565,0.261557 2.2734352,0.23712 2.4953801,-0.03031 z M 31.278718,66.84684 c 0.26317,-0.375729 0.312862,-1.675797 0.08678,-2.270437 -0.139128,-0.365932 -0.197125,-0.382839 -1.313394,-0.382839 -0.709316,0 -1.238155,0.07032 -1.346935,0.179099 -0.107879,0.107879 -0.1791,0.630163 -0.1791,1.313394 0,0.683229 0.07122,1.205513 0.1791,1.313392 0.10633,0.106331 0.618331,0.179099 1.260154,0.179099 0.947942,0 1.109666,-0.04085 1.313395,-0.331708 z M 10.085336,61.175372 c 0.268076,-0.38273 0.318511,-1.914885 0.07784,-2.364589 -0.133831,-0.250066 -0.321384,-0.288687 -1.4018997,-0.288687 -1.4586868,0 -1.4285838,-0.03312 -1.4285838,1.571908 0,1.322618 0.085756,1.402014 1.5213409,1.408538 0.8659577,0.0039 1.0299041,-0.03963 1.2313046,-0.32717 z m 21.12722,0.03321 c 0.237265,-0.237267 0.298498,-0.497498 0.298498,-1.268618 0,-1.320232 -0.245206,-1.567117 -1.556457,-1.567117 -1.288155,0 -1.428528,0.15399 -1.428528,1.567117 0,1.413126 0.140373,1.567116 1.428528,1.567116 0.76046,0 1.021369,-0.06191 1.257959,-0.298498 z M 10.137383,54.365968 c 0.02764,-0.79008 -0.01998,-1.322369 -0.130213,-1.455179 -0.2219452,-0.26743 -2.2338239,-0.291867 -2.4953804,-0.03031 -0.193208,0.19321 -0.2571422,2.528843 -0.07423,2.711754 0.057678,0.05768 0.6789277,0.08566 1.3805548,0.06219 L 10.0938,55.611738 Z m 21.228115,0.937556 c 0.226082,-0.59464 0.17639,-1.894707 -0.08678,-2.270437 -0.203729,-0.290862 -0.365453,-0.331708 -1.313395,-0.331708 -0.641823,0 -1.153824,0.07277 -1.260154,0.179099 -0.107879,0.107879 -0.1791,0.630164 -0.1791,1.313395 0,0.683228 0.07122,1.205513 0.1791,1.313391 0.10878,0.108781 0.637619,0.179099 1.346935,0.179099 1.116269,0 1.174266,-0.01691 1.313394,-0.382839 z M 10.00717,49.805485 c 0.110223,-0.132807 0.157851,-0.665099 0.130213,-1.455179 L 10.0938,47.104537 8.9229707,47.060693 c -0.7347627,-0.02752 -1.2489399,0.02098 -1.3805548,0.130209 -0.2691572,0.223383 -0.2941457,2.381374 -0.030626,2.644894 0.2615565,0.261557 2.2734352,0.23712 2.4953801,-0.03031 z m 21.193379,0 c 0.110223,-0.132807 0.157853,-0.665099 0.130212,-1.455179 l -0.04358,-1.245769 -1.170829,-0.04384 c -0.734764,-0.02752 -1.248939,0.02098 -1.380556,0.130209 -0.269155,0.223383 -0.294142,2.381374 -0.03062,2.644894 0.261556,0.261557 2.273434,0.23712 2.49538,-0.03031 z M 9.9226176,44.154046 C 10.139896,43.995169 10.174541,43.760794 10.137705,42.698867 L 10.0938,41.433069 H 8.7505574 7.4073152 l -0.043906,1.265798 c -0.052915,1.525543 0.047474,1.64456 1.387148,1.64456 0.5021873,0 1.0296138,-0.08522 1.1720604,-0.189381 z m 17.8057204,-1.84908 c -0.05377,-1.121153 -0.09776,-9.55 -0.09776,-18.730769 V 6.8818903 H 19.197999 10.765421 V 25.612658 44.343427 h 8.530339 8.530341 z m 3.34478,1.88396 c 0.250365,-0.133993 0.288687,-0.321503 0.288687,-1.412615 0,-1.476502 -0.08198,-1.567117 -1.417868,-1.567117 -1.335529,0 -1.417868,0.09088 -1.417868,1.564952 0,1.038691 0.04518,1.282266 0.261187,1.408079 0.342527,0.199501 1.916985,0.20412 2.285862,0.0067 z m -20.935413,-7.00664 c 0.05358,-1.544666 -0.03643,-1.64456 -1.4818351,-1.64456 -0.8721939,0 -1.0390084,0.04462 -1.2400918,0.331708 -0.264283,0.377317 -0.3125523,1.676615 -0.084564,2.276269 0.1455725,0.382884 0.1672374,0.38803 1.4551793,0.345527 L 10.0938,38.448085 Z m 21.193056,0.02003 c 0.02764,-0.79008 -0.01998,-1.322369 -0.130212,-1.455179 -0.221946,-0.26743 -2.233824,-0.291865 -2.49538,-0.03031 -0.193207,0.19321 -0.257144,2.528843 -0.07423,2.711755 0.05768,0.05768 0.678926,0.08566 1.380553,0.06219 l 1.275686,-0.04268 z M 9.9893243,32.672143 c 0.2392867,-0.239286 0.2392867,-2.387497 0,-2.626783 -0.1859174,-0.185917 -1.9943836,-0.252045 -2.4205532,-0.08851 -0.1886932,0.07241 -0.2360806,0.336039 -0.2360806,1.313394 0,0.752067 0.068946,1.291746 0.1790991,1.401897 0.1056656,0.105667 0.6135798,0.179099 1.2387678,0.179099 0.6251881,0 1.1331029,-0.07343 1.2387669,-0.179099 z m 21.1933817,0 c 0.18634,-0.186341 0.253611,-2.139545 0.08851,-2.569802 -0.07118,-0.185487 -0.32444,-0.23608 -1.181785,-0.23608 -1.592397,0 -1.563357,-0.02609 -1.563357,1.403985 0,0.752067 0.06895,1.291746 0.1791,1.401897 0.105666,0.105667 0.613579,0.179099 1.238768,0.179099 0.625189,0 1.133102,-0.07343 1.238769,-0.179099 z M 9.8797392,27.025276 C 10.127199,26.892836 10.168098,26.70635 10.16614,25.719346 10.16484,25.086058 10.10876,24.481069 10.041418,24.374921 9.953291,24.236004 9.5670972,24.194184 8.6631494,24.225672 l -1.2558342,0.04374 -0.043582,1.245772 c -0.02764,0.79008 0.019989,1.322369 0.1302118,1.455179 0.2081508,0.250807 1.945061,0.29078 2.3857944,0.05491 z m 21.1933788,0 c 0.250613,-0.134125 0.288687,-0.321606 0.288687,-1.421561 0,-1.22278 -0.01339,-1.272149 -0.382839,-1.412616 -0.210561,-0.08006 -0.676325,-0.145555 -1.035029,-0.145555 -0.358703,0 -0.824468,0.0655 -1.035029,0.145555 -0.369387,0.140438 -0.382839,0.189995 -0.382839,1.410449 0,1.04721 0.04495,1.291077 0.261187,1.417024 0.342527,0.199501 1.916985,0.20412 2.285862,0.0067 z M 9.9893243,21.179958 c 0.2392867,-0.239286 0.2392867,-2.387499 0,-2.626783 -0.1063307,-0.106331 -0.6183315,-0.179099 -1.2601537,-0.179099 -1.3336553,0 -1.5457292,0.210672 -1.5457292,1.535512 0,1.352857 0.097839,1.449469 1.4678927,1.449469 0.7023619,0 1.2294449,-0.07055 1.3379902,-0.179099 z m 21.1933817,0 c 0.107878,-0.107878 0.179099,-0.630163 0.179099,-1.313391 0,-0.683231 -0.07122,-1.205516 -0.179099,-1.313392 -0.106331,-0.106331 -0.618332,-0.179099 -1.260155,-0.179099 -0.947941,0 -1.109665,0.04084 -1.313394,0.331705 -0.263171,0.37573 -0.312862,1.6758 -0.08678,2.270438 0.139128,0.365934 0.197125,0.382838 1.313392,0.382838 0.709318,0 1.238157,-0.07032 1.346938,-0.179099 z M 9.9893243,15.508491 c 0.2392867,-0.239286 0.2392867,-2.387499 0,-2.626785 C 9.880779,12.773161 9.353696,12.702607 8.6513341,12.702607 c -1.383947,0 -1.4678927,0.08845 -1.4678927,1.546644 0,1.295388 0.1538425,1.438339 1.5479271,1.438339 0.6401128,0 1.1516939,-0.07283 1.2579558,-0.179099 z m 21.1933817,0 c 0.107878,-0.107878 0.179099,-0.630163 0.179099,-1.313392 0,-0.68323 -0.07122,-1.205514 -0.179099,-1.313393 -0.108546,-0.108545 -0.63563,-0.179099 -1.337993,-0.179099 -1.383948,0 -1.467892,0.08845 -1.467892,1.546644 0,1.295388 0.153844,1.438339 1.547926,1.438339 0.640114,0 1.151694,-0.07283 1.257959,-0.179099 z M 9.9338888,9.7815881 C 10.224034,9.4914444 10.267222,7.4881356 9.9893243,7.2102384 9.8814458,7.1023601 9.3591623,7.0311393 8.675933,7.0311393 c -0.6832296,0 -1.2055142,0.071221 -1.3133927,0.1790991 -0.1062639,0.1062639 -0.1790989,0.6178442 -0.1790989,1.257957 0,1.4060995 0.1367481,1.5479266 1.4924916,1.5479266 0.7313853,0 1.0903476,-0.066925 1.2579558,-0.2345339 z m 21.1933812,0 C 31.417412,9.4914444 31.460603,7.4881356 31.18271,7.2102384 31.074831,7.1023601 30.552546,7.0311393 29.869315,7.0311393 c -0.683228,0 -1.205513,0.071221 -1.313391,0.1790991 -0.106265,0.1062639 -0.179099,0.6178442 -0.179099,1.257957 0,1.4060995 0.136747,1.5479266 1.49249,1.5479266 0.731385,0 1.090351,-0.066925 1.257959,-0.2345339 z"
       id="path154" />
    <path
       style="fill:#f9f9f9;stroke-width:0.149249"
       d="m 49.754127,79.889317 c -0.146984,-0.0933 0.543796,-3.997392 3.095892,-17.497179 1.8068,-9.557398 3.320899,-17.530141 3.364664,-17.717204 0.0785,-0.335507 0.106315,-0.339553 2.052942,-0.2985 l 1.973368,0.04162 3.343487,17.66335 c 2.773648,14.652945 3.307866,17.685906 3.134492,17.795677 -0.27229,0.172402 -3.578622,0.172275 -3.850952,-1.43e-4 -0.125854,-0.07968 -0.36503,-0.95599 -0.600223,-2.19914 l -0.390996,-2.066671 -3.612557,-0.03996 -3.612558,-0.03996 -0.07386,0.338455 c -0.04063,0.186153 -0.219152,1.110822 -0.396725,2.054823 -0.197194,1.048311 -0.413279,1.78898 -0.555164,1.902929 -0.2632,0.211367 -3.553447,0.263972 -3.871807,0.0619 z m 10.922929,-8.771634 c 0.129844,-0.04983 0.236079,-0.202324 0.236079,-0.338881 0,-0.136556 -0.494887,-2.856809 -1.099751,-6.045001 -1.132996,-5.971963 -1.242049,-6.324484 -1.839066,-5.944897 -0.09774,0.06214 -0.687472,2.788603 -1.310515,6.058797 -0.873162,4.582983 -1.093362,5.993345 -0.9607,6.153193 0.133178,0.160469 0.688528,0.20738 2.454992,0.20738 1.255583,0 2.389116,-0.04076 2.518961,-0.09059 z"
       id="path193" />
    <path
       style="fill:#f9f9f9;stroke-width:0.149249"
       d="m 78.1141,79.915129 c -0.147585,-0.05955 -0.18656,-3.346672 -0.18656,-15.734 V 48.522404 h -3.283482 -3.283482 v -2.073521 c 0,-1.753097 0.03648,-2.08752 0.236082,-2.164111 0.308407,-0.118348 16.532331,-0.118348 16.84074,0 0.199599,0.07659 0.23608,0.411014 0.23608,2.164111 v 2.073521 h -3.283482 -3.283479 v 15.655192 c 0,14.13781 -0.02289,15.663974 -0.236083,15.745786 -0.280103,0.107487 -3.486962,0.100441 -3.756334,-0.0083 z"
       id="path232" />
    <path
       style="fill:#f9f9f9;stroke-width:0.149249"
       d="m 78.016482,41.694255 c -0.112514,-0.3654 -6.655906,-34.9918557 -6.655906,-35.2218503 0,-0.267113 3.929391,-0.2680142 4.141004,-9.525e-4 0.08131,0.1026089 1.004335,4.7871668 2.051177,10.4101278 1.046843,5.622962 1.964759,10.341102 2.039813,10.484755 0.146524,0.280445 0.647939,0.35406 0.794655,0.116668 0.04913,-0.07948 0.962644,-4.730459 2.030045,-10.335504 1.067401,-5.605043 2.003581,-10.3421019 2.080405,-10.5267977 0.135099,-0.3248044 0.20582,-0.3358105 2.157741,-0.3358105 1.922455,0 2.018062,0.014224 2.018062,0.3002349 0,0.3140815 -6.517053,34.8585983 -6.63765,35.1837523 -0.05048,0.136096 -0.592569,0.18656 -2.00406,0.18656 -1.712592,0 -1.944103,-0.03 -2.015286,-0.261186 z"
       id="path271" />
    <path
       style="fill:#f9f9f9;stroke-width:0.149249"
       d="m 56.361037,41.790979 c -0.410434,-0.08219 -1.299831,-0.416291 -1.976434,-0.742456 -2.242093,-1.08082 -4.05089,-3.260521 -4.584592,-5.524687 -0.338704,-1.436918 -0.339833,-21.440616 -0.0013,-22.740402 0.379003,-1.455092 1.073973,-2.591731 2.376419,-3.8866803 2.402618,-2.3887914 5.462442,-3.1638253 8.599503,-2.178201 2.788603,0.8761433 5.451891,3.8093173 5.960131,6.5641093 0.08909,0.482886 0.147439,4.863602 0.146114,10.969813 -0.0024,11.294358 0.0042,11.20667 -0.988859,13.096403 -0.983766,1.872113 -2.96772,3.540141 -4.968137,4.177001 -1.135182,0.361403 -3.419216,0.494102 -4.562864,0.2651 z m 3.897861,-4.577644 c 0.953672,-0.493765 1.492644,-1.01763 1.911252,-1.857663 l 0.384728,-0.772049 v -10.42293 c 0,-11.583085 0.04861,-11.003104 -1.01472,-12.10529 -2.086485,-2.1627161 -5.706176,-1.80642 -7.26541,0.715154 l -0.450946,0.729264 -0.04178,10.310019 c -0.03716,9.170651 -0.01505,10.392489 0.199948,11.056265 0.411853,1.271461 1.189321,2.042422 2.585368,2.563739 0.821269,0.306681 2.918645,0.183671 3.691557,-0.216509 z"
       id="path310" />
    <path
       style="fill:#f9f9f9;stroke-width:0.149249"
       d="m 93.251664,41.857154 c -0.185645,-0.185645 -0.114583,-3.857869 0.07839,-4.05084 0.127817,-0.127818 1.067961,-0.179099 3.283482,-0.179099 h 3.104382 V 24.194793 10.762368 h -3.031082 c -2.201794,0 -3.10143,-0.05144 -3.288208,-0.188015 C 93.174101,10.410176 93.14683,10.14051 93.183539,8.4475523 l 0.04204,-1.9387849 8.619141,-0.038525 8.61913,-0.038525 v 2.0747325 c 0,1.7542041 -0.0365,2.0887281 -0.23608,2.1653251 -0.12984,0.04983 -1.60741,0.09059 -3.28348,0.09059 h -3.0474 v 13.429513 13.429513 l 3.24617,0.04022 3.24617,0.04022 v 2.089488 2.089486 l -8.51843,0.03852 c -4.685133,0.02119 -8.563745,-0.0068 -8.619135,-0.06218 z"
       id="path349" />
    <path
       style="fill:#f9f9f9;stroke-width:0.149249"
       d="M 100.76266,79.867655 C 97.34444,79.42197 94.579401,77.146326 93.505246,73.89476 93.255799,73.139661 93.230198,72.249314 93.18574,62.782575 c -0.03256,-6.933059 0.0048,-10.634088 0.114647,-11.34174 0.598762,-3.859114 4.510849,-7.092225 8.581643,-7.092225 3.96281,0 7.79917,3.286088 8.45794,7.244758 0.26857,1.613897 0.32388,1.571699 -1.99629,1.522801 l -1.97696,-0.04167 -0.23515,-0.900146 c -0.85501,-3.272904 -4.42144,-4.542798 -7.144462,-2.543916 -0.49003,0.359714 -0.869185,0.80301 -1.123744,1.313847 l -0.384185,0.770958 v 10.32124 c 0,10.934668 -0.0057,10.840447 0.721733,11.868634 0.805712,1.138788 2.029538,1.696392 3.681118,1.677204 1.25766,-0.01461 1.94521,-0.285647 2.85727,-1.12635 0.76118,-0.701632 1.04106,-1.174382 1.39258,-2.352204 l 0.24499,-0.820869 2.04349,-0.04152 2.04349,-0.04152 v 0.569849 c 0,0.782304 -0.37612,2.171364 -0.8785,3.244427 -1.05836,2.260587 -3.504,4.24521 -5.77666,4.687731 -1.16507,0.226857 -2.16168,0.281101 -3.04603,0.165796 z"
       id="path388" />
    <path
       style="fill:#f9f9f9;stroke-width:0.149249"
       d="m 115.17586,79.77944 c -0.21053,-0.210534 -0.23453,-2.017318 -0.23453,-17.656174 0,-13.351166 0.0419,-17.463487 0.1791,-17.60074 0.12048,-0.120486 0.79908,-0.179099 2.07352,-0.179099 1.58978,0 1.90899,0.03796 1.98501,0.23608 0.0498,0.129844 0.0906,3.655856 0.0906,7.835582 v 7.5995 h 4.40151 4.40152 l 0.0387,-7.798268 0.0386,-7.798268 h 2.01486 2.01487 l 0.0379,17.676836 c 0.0301,14.042885 -5.3e-4,17.701268 -0.14925,17.795676 -0.3099,0.19676 -3.60966,0.14858 -3.81393,-0.05569 -0.13464,-0.134644 -0.1791,-2.079538 -0.1791,-7.83558 v -7.656483 h -4.40285 -4.40284 v 7.656483 c 0,5.756042 -0.0445,7.700936 -0.1791,7.83558 -0.11894,0.118938 -0.7671,0.179099 -1.92958,0.179099 -1.39235,0 -1.79847,-0.04798 -1.98502,-0.234535 z"
       id="path427" />
    <path
       style="fill:#f9f9f9;stroke-width:0.149249"
       d="m 115.01017,41.768881 c -0.0391,-0.102611 -0.0538,-8.078113 -0.0326,-17.723337 l 0.0384,-17.5367766 8.49041,-0.038554 c 6.14648,-0.02791 8.54655,0.00804 8.69376,0.1302115 0.15153,0.1257623 0.20335,0.6381496 0.20335,2.0108539 0,1.6684692 -0.0272,1.8566502 -0.28869,1.9965892 -0.18603,0.09956 -2.54778,0.1545 -6.64158,0.1545 h -6.3529 v 5.594982 5.59498 l 5.41028,0.03918 5.41028,0.03917 0.0414,2.126801 0.0414,2.1268 h -5.45169 -5.45169 v 5.671468 5.671468 h 6.46248 c 4.82739,0 6.50781,0.04532 6.64159,0.179099 0.18824,0.188238 0.26225,3.460292 0.0885,3.913047 -0.0812,0.211482 -0.98361,0.23608 -8.66114,0.23608 -6.71904,0 -8.58589,-0.0403 -8.64158,-0.18656 z"
       id="path466" />
    <path
       style="fill:#f9f9f9;stroke-width:0.149249"
       d="m 158.70118,79.834876 c -0.13727,-0.137271 -0.1791,-4.283943 -0.1791,-17.755399 V 44.50318 l 0.32135,-0.171979 c 0.2306,-0.123415 1.52658,-0.15127 4.58941,-0.09864 3.73727,0.06421 4.41519,0.112871 5.45112,0.391242 2.00749,0.539438 3.58823,1.594054 4.81066,3.209491 1.45401,1.92147 2.13486,3.973113 2.13557,6.435204 7.9e-4,2.770584 -0.94172,5.054076 -2.90102,7.028505 -0.6592,0.664284 -1.55107,1.403067 -1.98194,1.641742 -0.43088,0.238673 -0.78348,0.488543 -0.78356,0.555268 -9e-5,0.06672 1.27691,3.726418 2.83777,8.132659 1.56086,4.406241 2.80547,8.095938 2.7658,8.199326 -0.10852,0.282792 -4.09969,0.263832 -4.48967,-0.02133 -0.19084,-0.139539 -1.18392,-2.73885 -2.9794,-7.798268 l -2.69315,-7.588962 -1.45198,-0.04272 -1.45198,-0.04272 v 7.750392 c 0,6.929665 -0.025,7.759986 -0.23608,7.840985 -0.45106,0.173091 -3.57568,0.09961 -3.7638,-0.08851 z m 9.50294,-20.346077 c 1.18555,-0.532043 2.39442,-1.801678 2.86946,-3.013718 0.47648,-1.215671 0.47648,-3.197498 0,-4.413171 -0.47504,-1.21204 -1.68391,-2.481675 -2.86946,-3.013718 -0.84439,-0.378941 -1.12192,-0.421404 -3.21363,-0.491704 l -2.28943,-0.07694 v 5.788949 5.788951 l 2.28943,-0.07694 c 2.09171,-0.0703 2.36924,-0.11276 3.21363,-0.491704 z"
       id="path505" />
    <path
       style="fill:#f9f9f9;stroke-width:0.149249"
       d="m 136.89861,79.811376 c -0.12307,-0.148284 -0.15797,-4.899803 -0.13021,-17.723337 l 0.0379,-17.520737 h 8.65645 8.65645 v 2.014863 2.014863 l -6.60607,0.03887 -6.60606,0.03886 0.0391,5.632604 0.0391,5.632601 5.36534,0.03923 c 4.06438,0.02972 5.39378,0.084 5.48262,0.223875 0.17409,0.274098 0.1466,3.516119 -0.0326,3.851058 -0.14836,0.277204 -0.36808,0.288687 -5.52401,0.288687 h -5.36952 l 0.0391,5.634156 0.0391,5.634157 6.56696,0.07462 6.56696,0.07463 0.0419,1.919425 c 0.0281,1.287827 -0.0147,1.987661 -0.1302,2.1268 -0.25302,0.304858 -16.87942,0.309494 -17.13231,0.0048 z"
       id="path544" />
  </g>
</svg>
