<?xml version="1.0" encoding="UTF-8" standalone="no"?>
<!-- Created with Inkscape (http://www.inkscape.org/) -->

<svg
   width="176mm"
   height="80mm"
   viewBox="0 0 176 80"
   version="1.1"
   id="svg1810"
   inkscape:version="1.1.1 (3bf5ae0d25, 2021-09-20)"
   sodipodi:docname="logo.svg"
   xmlns:inkscape="http://www.inkscape.org/namespaces/inkscape"
   xmlns:sodipodi="http://sodipodi.sourceforge.net/DTD/sodipodi-0.dtd"
   xmlns="http://www.w3.org/2000/svg"
   xmlns:svg="http://www.w3.org/2000/svg">
  <sodipodi:namedview
     id="namedview1812"
     pagecolor="#ffffff"
     bordercolor="#666666"
     borderopacity="1.0"
     inkscape:pageshadow="2"
     inkscape:pageopacity="0.0"
     inkscape:pagecheckerboard="0"
     inkscape:document-units="mm"
     showgrid="false"
     inkscape:snap-global="false"
     inkscape:zoom="4.3665944"
     inkscape:cx="86.451812"
     inkscape:cy="91.490064"
     inkscape:window-width="1920"
     inkscape:window-height="1001"
     inkscape:window-x="-9"
     inkscape:window-y="-9"
     inkscape:window-maximized="1"
     inkscape:current-layer="layer1"
     height="296mm" />
  <defs
     id="defs1807" />
  <g
     inkscape:label="Layer 1"
     inkscape:groupmode="layer"
     id="layer1">
    <path
       style="fill:#808080;stroke-width:0.149249"
       d=""
       id="path8988" />
    <path
       style="fill:#808080;stroke-width:0.149249"
       d="m 3.0034918,76.257692 c -0.138325,-0.138324 -0.179099,-8.510286 -0.179099,-36.773947 0,-33.2320355 0.02169,-36.6031742 0.23608,-36.6854419 0.323519,-0.1241457 25.1181742,-0.085792 25.5840232,0.039575 0.295373,0.079488 0.752981,0.7656981 2.196015,3.2930446 1.002591,1.7559474 1.88562,3.2553574 1.962283,3.3320214 0.08635,0.08635 0.867113,-1.143886 2.051981,-3.2332974 l 1.912591,-3.3726866 h 2.356278 2.356279 V 20.621821 38.386682 l -2.052174,-0.04152 -2.052178,-0.04152 -0.07462,-13.880171 -0.07462,-13.880172 -2.152703,3.786884 c -1.863839,3.278735 -2.177611,3.752816 -2.338348,3.532997 -0.102105,-0.139636 -1.047509,-1.776574 -2.1009,-3.637634 L 28.71913,10.841797 28.6811,25.728679 c -0.03583,14.023747 -0.02286,14.902101 0.223875,15.14933 0.144047,0.144346 1.06785,1.68743 2.052896,3.429079 0.985044,1.741646 1.858151,3.146457 1.940238,3.1218 0.08209,-0.02466 0.988777,-1.517046 2.014865,-3.316419 l 1.865614,-3.271592 2.350672,-0.0411 2.350675,-0.0411 v 17.748472 c 0,16.046604 -0.02265,17.757159 -0.23608,17.839063 -0.451061,0.17309 -3.575677,0.09962 -3.763796,-0.08851 -0.136702,-0.136699 -0.179099,-3.424737 -0.179099,-13.888979 0,-8.019372 -0.05539,-13.675648 -0.133445,-13.627407 -0.07339,0.04536 -0.958755,1.54368 -1.967468,3.329602 -1.008728,1.785911 -1.946115,3.433151 -2.083098,3.660521 l -0.24906,0.413404 -2.074384,-3.659746 -2.074383,-3.65974 -0.0381,13.685458 c -0.02985,10.721084 -0.07834,13.711013 -0.223875,13.803432 -0.102174,0.06489 -5.830749,0.119004 -12.730165,0.120261 -9.5603242,0.0019 -12.5869952,-0.04032 -12.7234902,-0.176816 z M 24.167021,58.601517 V 41.363241 H 15.734444 7.3018688 v 17.238276 17.238279 h 8.4325752 8.432577 z M 6.5257718,74.765201 c 0.108545,-0.108545 0.179099,-0.635629 0.179099,-1.337992 0,-1.378654 -0.09169,-1.467893 -1.50824,-1.467893 -1.271386,0 -1.476743,0.201753 -1.476743,1.450811 0,1.44467 0.08564,1.534174 1.467893,1.534174 0.702361,0 1.229445,-0.07055 1.337991,-0.1791 z m 21.1933782,0 c 0.107882,-0.107878 0.179099,-0.630163 0.179099,-1.313391 0,-0.683231 -0.07122,-1.205516 -0.179099,-1.313395 -0.10633,-0.10633 -0.618331,-0.179099 -1.260154,-0.179099 -1.333654,0 -1.545728,0.210675 -1.545728,1.535515 0,1.352857 0.09784,1.44947 1.467892,1.44947 0.702361,0 1.229445,-0.07055 1.33799,-0.1791 z M 6.5257718,69.093733 c 0.239286,-0.239286 0.239286,-2.387499 0,-2.626786 -0.106265,-0.106261 -0.617844,-0.179099 -1.257957,-0.179099 -1.394085,0 -1.547927,0.142952 -1.547927,1.438341 0,1.458193 0.08395,1.546644 1.467893,1.546644 0.702361,0 1.229445,-0.07055 1.337991,-0.1791 z m 21.1933782,0 c 0.107882,-0.107878 0.179099,-0.630163 0.179099,-1.313391 0,-0.683231 -0.07122,-1.205516 -0.179099,-1.313395 -0.106262,-0.106261 -0.617841,-0.179099 -1.257956,-0.179099 -1.394084,0 -1.547926,0.142952 -1.547926,1.438341 0,1.458193 0.08394,1.546644 1.467892,1.546644 0.702361,0 1.229445,-0.07055 1.33799,-0.1791 z M 6.5257718,63.422265 c 0.239286,-0.239286 0.239286,-2.387496 0,-2.626786 -0.108546,-0.108545 -0.63563,-0.179096 -1.337991,-0.179096 -1.383947,0 -1.467893,0.08845 -1.467893,1.546643 0,1.295387 0.153842,1.438338 1.547927,1.438338 0.640113,0 1.151692,-0.07283 1.257957,-0.179099 z m 21.1933782,0 c 0.107882,-0.107878 0.179099,-0.630163 0.179099,-1.313391 0,-0.683231 -0.07122,-1.205513 -0.179099,-1.313395 -0.108545,-0.108545 -0.635629,-0.179096 -1.33799,-0.179096 -1.383948,0 -1.467892,0.08845 -1.467892,1.546643 0,1.295387 0.153842,1.438338 1.547926,1.438338 0.640115,0 1.151694,-0.07283 1.257956,-0.179099 z M 6.4161838,57.775398 c 0.245398,-0.131334 0.288687,-0.319735 0.288687,-1.256413 0,-1.60746 0.03031,-1.57407 -1.428584,-1.57407 -1.469481,0 -1.556399,0.08095 -1.556399,1.449469 0,1.295485 0.224494,1.535512 1.436142,1.535512 0.534307,0 1.101377,-0.06952 1.260154,-0.154498 z m 21.1933812,0 c 0.247984,-0.13272 0.288684,-0.320598 0.288684,-1.332584 0,-1.502085 -0.125809,-1.647151 -1.428527,-1.647151 -1.311249,0 -1.556454,0.246886 -1.556454,1.567117 0,1.305203 0.251079,1.567116 1.502301,1.567116 0.49792,0 1.035217,-0.06952 1.193996,-0.154498 z M 6.5257718,51.93008 c 0.106264,-0.106264 0.179099,-0.617844 0.179099,-1.257956 0,-1.406101 -0.136748,-1.547926 -1.492492,-1.547926 -1.332539,0 -1.492491,0.154149 -1.492491,1.438339 0,1.458192 0.08395,1.546643 1.467893,1.546643 0.702361,0 1.229445,-0.07055 1.337991,-0.1791 z m 21.1933782,0 c 0.107882,-0.107878 0.179099,-0.630163 0.179099,-1.313391 0,-0.683231 -0.07122,-1.205513 -0.179099,-1.313394 -0.106262,-0.106262 -0.617841,-0.179097 -1.257956,-0.179097 -1.394084,0 -1.547926,0.142949 -1.547926,1.438339 0,1.458192 0.08394,1.546643 1.467892,1.546643 0.702361,0 1.229445,-0.07055 1.33799,-0.1791 z M 6.5257718,46.258612 c 0.239286,-0.239286 0.239286,-2.387496 0,-2.626783 -0.108546,-0.108548 -0.63563,-0.179099 -1.337991,-0.179099 -1.383947,0 -1.467893,0.08845 -1.467893,1.546643 0,1.295389 0.153842,1.438339 1.547927,1.438339 0.640113,0 1.151692,-0.07284 1.257957,-0.1791 z m 21.1933782,0 c 0.107882,-0.107878 0.179099,-0.630163 0.179099,-1.313391 0,-0.683231 -0.07122,-1.205513 -0.179099,-1.313392 -0.108545,-0.108548 -0.635629,-0.179099 -1.33799,-0.179099 -1.383948,0 -1.467892,0.08845 -1.467892,1.546643 0,1.295389 0.153842,1.438339 1.547926,1.438339 0.640115,0 1.151694,-0.07284 1.257956,-0.1791 z M 6.4703358,40.531709 c 0.290145,-0.290142 0.333333,-2.293451 0.05544,-2.571348 -0.107879,-0.107878 -0.630163,-0.179099 -1.313393,-0.179099 -0.683229,0 -1.205514,0.07122 -1.313392,0.179099 -0.106264,0.106262 -0.179099,0.617842 -0.179099,1.257956 0,1.406099 0.136748,1.547927 1.492491,1.547927 0.731386,0 1.090349,-0.06692 1.257957,-0.234535 z M 24.167021,22.035477 V 3.3047071 H 15.734444 7.3018688 V 22.035477 40.766244 h 8.4325752 8.432577 z m 3.496694,18.496232 c 0.264128,-0.264128 0.334163,-2.212623 0.09322,-2.593475 -0.21313,-0.336889 -1.996908,-0.406411 -2.470235,-0.09627 -0.340762,0.223274 -0.37343,0.338016 -0.37343,1.311545 0,1.435653 0.165251,1.612739 1.504963,1.612739 0.720048,0 1.078439,-0.06749 1.245484,-0.234535 z M 6.5503698,34.65684 c 0.254947,-0.476372 0.192654,-2.108261 -0.0925,-2.423359 -0.33116,-0.365926 -2.14805,-0.393797 -2.503444,-0.0384 -0.290143,0.290142 -0.333332,2.29345 -0.05544,2.571348 0.108545,0.108545 0.635629,0.179099 1.337991,0.179099 0.993013,0 1.181008,-0.04132 1.313392,-0.288687 z m 21.1933812,0 c 0.08497,-0.158777 0.154498,-0.724858 0.154498,-1.257956 0,-1.28419 -0.159951,-1.438339 -1.49249,-1.438339 -1.355744,0 -1.492491,0.141827 -1.492491,1.547926 0,0.640115 0.07283,1.151695 0.179099,1.257957 0.108545,0.108545 0.63563,0.179099 1.33799,0.179099 0.993013,0 1.181007,-0.04132 1.313394,-0.288687 z M 6.5503698,28.985372 c 0.199985,-0.373674 0.199985,-2.033934 0,-2.407608 -0.132384,-0.247367 -0.320379,-0.288687 -1.313392,-0.288687 -0.702362,0 -1.229446,0.07055 -1.337991,0.179099 -0.239286,0.239287 -0.239286,2.387497 0,2.626784 0.108545,0.108548 0.635629,0.179099 1.337991,0.179099 0.993013,0 1.181008,-0.04132 1.313392,-0.288687 z m 21.1933812,0 c 0.215265,-0.402228 0.19676,-2.295837 -0.02461,-2.517196 -0.107878,-0.107878 -0.630161,-0.179099 -1.313392,-0.179099 -0.683228,0 -1.205513,0.07122 -1.313391,0.179099 -0.221361,0.221359 -0.239866,2.114968 -0.02461,2.517196 0.13281,0.248158 0.320659,0.288687 1.337992,0.288687 1.017334,0 1.205183,-0.04053 1.337993,-0.288687 z M 6.4703358,23.368056 c 0.16506,-0.16506 0.234535,-0.521647 0.234535,-1.203804 0,-1.458193 -0.08395,-1.546643 -1.467893,-1.546643 -0.702362,0 -1.229446,0.07055 -1.337991,0.179099 -0.108488,0.108487 -0.179099,0.635148 -0.179099,1.335826 0,1.386342 0.07526,1.458944 1.519143,1.465519 0.711892,0.0032 1.0638,-0.06249 1.231305,-0.229997 z m 21.1549772,-0.01246 c 0.216858,-0.196249 0.272936,-0.4705 0.272936,-1.334772 0,-1.330222 -0.21364,-1.552448 -1.49249,-1.552448 -1.281899,0 -1.492491,0.22081 -1.492491,1.564917 0,1.421443 0.137014,1.569313 1.454086,1.569313 0.707129,0 1.062022,-0.06968 1.257959,-0.247005 z M 6.5503698,17.4932 c 0.08498,-0.158776 0.154501,-0.707575 0.154501,-1.219552 0,-1.29726 -0.189651,-1.476742 -1.560398,-1.476742 -0.630414,0 -1.139609,0.07322 -1.245486,0.179099 -0.239286,0.239283 -0.239286,2.387499 0,2.626783 0.108545,0.108548 0.635629,0.179099 1.337991,0.179099 0.993013,0 1.181008,-0.04132 1.313392,-0.288687 z m 21.1933812,0 c 0.250018,-0.467167 0.194085,-2.187641 -0.08004,-2.46176 -0.290142,-0.290145 -2.293451,-0.333333 -2.571348,-0.05543 -0.107878,0.107878 -0.179099,0.630163 -0.179099,1.313391 0,0.683228 0.07122,1.205513 0.179099,1.313392 0.108545,0.108548 0.63563,0.179099 1.33799,0.179099 0.993013,0 1.181007,-0.04132 1.313394,-0.288687 z M 6.3986468,11.96909 c 0.273984,-0.173335 0.394388,-1.861255 0.173567,-2.4332309 -0.154146,-0.399278 -0.190198,-0.410435 -1.326291,-0.410435 -0.709319,0 -1.238155,0.07032 -1.346936,0.179099 -0.239286,0.239286 -0.239286,2.3874989 0,2.6267849 0.21142,0.21142 2.178207,0.241148 2.49966,0.03778 z M 27.663715,11.87587 c 0.165063,-0.165061 0.234534,-0.521649 0.234534,-1.203805 0,-1.4581939 -0.08394,-1.5466429 -1.467892,-1.5466429 -0.70236,0 -1.229445,0.07055 -1.33799,0.179099 -0.107878,0.107878 -0.179099,0.630163 -0.179099,1.3133919 0,0.68323 0.07122,1.205514 0.179099,1.313393 0.277897,0.277897 2.281206,0.234708 2.571348,-0.05544 z M 6.3943658,6.2295308 c 0.110223,-0.1328089 0.157853,-0.6650982 0.130212,-1.4551792 l -0.04358,-1.2457707 h -1.343241 -1.343243 l -0.04358,1.2457707 c -0.02764,0.790081 0.01999,1.3223703 0.130212,1.4551792 0.119924,0.1444998 0.509427,0.2094087 1.256613,0.2094087 0.747185,0 1.136689,-0.064909 1.256611,-0.2094087 z m 21.1933822,0 c 0.11022,-0.1328089 0.15785,-0.6650982 0.130212,-1.4551792 L 27.67438,3.5285809 h -1.343242 -1.343245 l -0.0439,1.2657989 c -0.03683,1.0619245 -0.0021,1.2963014 0.215088,1.4551792 0.364104,0.2662404 2.20368,0.25107 2.428674,-0.020029 z"
       id="path9027" />
    <path
       style="fill:#808080;stroke-width:0.149249"
       d="m 46.30708,76.095511 c -0.08139,-0.212082 6.43118,-35.034791 6.604752,-35.315636 0.126611,-0.204862 3.755022,-0.154824 3.883811,0.05356 0.06075,0.0983 1.599898,8.040219 3.420329,17.648713 2.25262,11.889661 3.263135,17.52958 3.163557,17.656551 -0.205677,0.262252 -3.741666,0.262205 -3.95932,-5.3e-5 -0.118116,-0.142322 -0.926418,-3.82416 -0.926418,-4.219863 0,-0.04197 -1.628682,-0.05832 -3.619293,-0.03634 l -3.619291,0.03996 -0.411742,2.081488 c -0.226457,1.144817 -0.495107,2.134431 -0.596995,2.19914 -0.101891,0.06471 -1.0101,0.118681 -2.018242,0.119938 -1.513893,0.0019 -1.848334,-0.03771 -1.921148,-0.227462 z m 11.117197,-8.769983 c 0.21141,-0.254732 -1.979716,-11.863292 -2.301084,-12.191121 -0.547719,-0.558729 -0.682937,-0.127426 -1.805022,5.757473 -0.593304,3.111657 -1.08191,5.836656 -1.085789,6.055556 -0.0039,0.218898 0.0769,0.431874 0.179506,0.473276 0.102608,0.0414 1.236142,0.08058 2.518961,0.08706 1.743487,0.0088 2.373058,-0.03721 2.493428,-0.182245 z"
       id="path9066" />
    <path
       style="fill:#808080;stroke-width:0.149249"
       d="M 74.642552,76.146157 C 74.505541,76.009148 74.463451,72.309442 74.463451,60.403282 V 44.839507 l -3.24617,-0.04022 -3.246168,-0.04022 -0.04204,-1.938785 c -0.03671,-1.692957 -0.0094,-1.962623 0.215087,-2.1268 0.199414,-0.145814 2.107523,-0.188015 8.501272,-0.188015 7.29567,0 8.27112,0.02698 8.47867,0.234534 0.18566,0.185653 0.23454,0.587489 0.23454,1.928032 0,0.931424 -0.0408,1.799736 -0.0906,1.92958 -0.0787,0.205094 -0.50966,0.23608 -3.28348,0.23608 h -3.19289 v 15.566686 c 0,11.908425 -0.0421,15.608776 -0.17909,15.745785 -0.11957,0.119565 -0.77942,0.179099 -1.98502,0.179099 -1.2056,0 -1.86545,-0.05953 -1.98501,-0.179099 z"
       id="path9105" />
    <path
       style="fill:#808080;stroke-width:0.149249"
       d="M 74.688222,38.118926 C 74.557442,37.907318 68.050427,3.5000762 68.047866,3.0066103 l -0.0021,-0.4104352 h 2.006054 c 1.115566,0 2.045222,0.06337 2.094286,0.1427578 0.04853,0.078517 0.964261,4.8294142 2.034966,10.5575501 1.07238,5.737045 2.02546,10.464863 2.12201,10.52627 0.26159,0.166386 0.51586,0.139039 0.65152,-0.07007 0.0664,-0.102368 1.02751,-4.887667 2.13578,-10.634003 l 2.01504,-10.4478812 2.00272,-0.041821 c 1.10149,-0.023 2.05644,0.011906 2.12211,0.077573 0.12267,0.1226714 -6.32835,34.6207412 -6.58684,35.2243612 -0.13814,0.322591 -0.21702,0.335809 -2.00381,0.335809 -1.06681,0 -1.89896,-0.06303 -1.95135,-0.147796 z"
       id="path9144" />
    <path
       style="fill:#808080;stroke-width:0.149249"
       d="m 52.762792,38.028827 c -1.553469,-0.375882 -2.745642,-1.072552 -4.05956,-2.37228 -0.8523,-0.843092 -1.347708,-1.481749 -1.680014,-2.165797 -0.896417,-1.845244 -0.911776,-2.062345 -0.913387,-12.910053 -7.94e-4,-5.890217 0.05906,-10.240465 0.149069,-10.8205629 0.216842,-1.397438 1.163971,-3.2455317 2.212432,-4.3170317 2.843644,-2.9061259 6.639026,-3.6269779 10.065856,-1.9117948 2.172714,1.0874769 4.096166,3.3661342 4.674349,5.5375635 0.163293,0.61326 0.204287,2.8945339 0.205706,11.4474269 0.0019,11.746314 0.03459,11.28368 -0.931289,13.198326 -0.621913,1.23281 -2.2744,2.841472 -3.655266,3.558321 -1.821548,0.94562 -4.107074,1.230331 -6.067896,0.755882 z m 3.592624,-4.313512 c 0.897297,-0.266467 2.013809,-1.198706 2.480426,-2.071045 l 0.32957,-0.616132 V 20.431448 9.8347591 l -0.41457,-0.705255 c -1.444292,-2.4569825 -4.912468,-2.9367948 -7.057475,-0.97638 -1.404514,1.283647 -1.333656,0.63525 -1.333656,12.2037009 0,8.339498 0.03713,10.202823 0.215612,10.820564 0.292386,1.01196 1.471192,2.204217 2.48807,2.516458 0.950902,0.29198 2.350376,0.301106 3.292023,0.02146 z"
       id="path9183" />
    <path
       style="fill:#808080;stroke-width:0.149249"
       d="m 89.901842,38.073492 c -0.0413,-0.107622 -0.0562,-1.065234 -0.0331,-2.128025 l 0.042,-1.932345 3.24616,-0.04022 3.24617,-0.04022 V 20.503164 7.0736498 h -3.0474 c -1.67607,0 -3.15364,-0.040767 -3.28348,-0.090593 -0.19961,-0.076597 -0.23608,-0.4111212 -0.23608,-2.1653251 V 2.7429996 l 8.61914,0.038525 8.619138,0.038525 0.042,1.9387851 c 0.0367,1.6929576 0.009,1.9626241 -0.21509,2.1268005 -0.18678,0.1365753 -1.08641,0.1880153 -3.28821,0.1880153 h -3.03108 V 20.506074 33.938496 h 3.11596 c 2.47748,0 3.15122,0.0425 3.28806,0.207378 0.11548,0.139136 0.15832,0.83897 0.13021,2.1268 l -0.0419,1.919425 -8.548728,0.03853 c -6.94104,0.03129 -8.56285,0.0019 -8.62382,-0.157141 z"
       id="path9222" />
    <path
       style="fill:#808080;stroke-width:0.149249"
       d="m 111.66319,20.544597 0.0379,-17.7245481 h 8.58183 8.58182 l 0.0418,2.0032673 c 0.0314,1.5024605 -0.006,2.0335787 -0.14925,2.1245149 -0.10509,0.066686 -3.06225,0.1222762 -6.57147,0.1235332 l -6.38041,0.00228 v 5.5968537 5.596844 h 5.28007 c 4.32462,0 5.31122,0.03753 5.45218,0.207375 0.11548,0.139136 0.15832,0.838972 0.13021,2.1268 l -0.0419,1.919425 -5.41028,0.03917 -5.41029,0.03917 v 5.668037 5.668039 l 6.52965,0.03888 6.52965,0.03888 v 2.089489 2.089488 l -8.61974,0.03852 -8.61975,0.03852 z"
       id="path9261" />
    <path
       style="fill:#808080;stroke-width:0.149249"
       d="m 111.81243,76.201847 c -0.14869,-0.09441 -0.17938,-3.752789 -0.14924,-17.795677 l 0.0379,-17.676836 h 2.01487 2.01486 l 0.0386,7.798268 0.0386,7.798269 h 4.47481 4.47481 l 0.0386,-7.798269 0.0386,-7.798268 h 2.01486 2.01486 l 0.0379,17.595366 c 0.0278,12.878713 -0.007,17.649671 -0.13021,17.79796 -0.12345,0.148748 -0.61623,0.202596 -1.85402,0.202596 -0.92724,0 -1.79212,-0.04076 -1.92197,-0.09059 -0.21107,-0.081 -0.23608,-0.910844 -0.23608,-7.83558 V 60.6541 h -4.47747 -4.47748 v 7.744986 c 0,6.924736 -0.025,7.754583 -0.23608,7.83558 -0.34827,0.133646 -3.53866,0.105778 -3.75695,-0.03282 z"
       id="path9300" />
    <path
       style="fill:#808080;stroke-width:0.149249"
       d="m 97.298572,76.168747 c -3.41237,-0.400756 -6.47412,-3.057152 -7.23265,-6.275093 -0.33876,-1.437162 -0.33989,-21.589643 -0.001,-22.889655 0.50557,-1.941017 2.03418,-3.918079 3.90673,-5.052848 3.2983,-1.998782 7.369918,-1.600277 10.152678,0.993674 1.61042,1.501156 2.54469,3.188603 2.86435,5.173501 0.22428,1.392664 0.27797,1.356948 -1.96778,1.308982 -2.18107,-0.04659 -2.01167,0.04956 -2.42423,-1.376027 -0.36226,-1.251791 -1.59529,-2.490438 -2.839078,-2.85202 -2.06619,-0.600655 -4.38946,0.305453 -5.34058,2.082905 l -0.32702,0.611127 v 10.522066 10.522064 l 0.36918,0.722768 c 0.7473,1.463069 2.0682,2.223984 3.87627,2.232953 2.257388,0.01122 3.910988,-1.314241 4.410628,-3.535331 l 0.17178,-0.763632 1.99181,-0.04182 c 1.0955,-0.02299 2.0483,0.01466 2.11732,0.08368 0.069,0.06903 0.0269,0.690441 -0.0936,1.380911 -0.32239,1.846686 -1.05804,3.235618 -2.45698,4.638823 -2.00721,2.013352 -4.37446,2.842165 -7.177498,2.512967 z"
       id="path9339" />
    <path
       style="fill:#808080;stroke-width:0.149249"
       d="m 133.60342,76.226413 c -0.14777,-0.05963 -0.18656,-3.749646 -0.18656,-17.748866 v -17.67359 h 8.66067 8.66066 l -0.0415,2.052177 -0.0415,2.052175 -6.52965,0.03888 -6.52965,0.03888 v 5.668036 5.668036 l 5.41028,0.03918 5.41028,0.03917 v 2.089488 2.089489 l -5.41028,0.03917 -5.41028,0.03917 v 5.669606 5.669605 h 6.56696 6.56697 v 2.073521 c 0,1.753098 -0.0365,2.08752 -0.23608,2.164112 -0.28208,0.108246 -16.62134,0.100261 -16.89027,-0.0083 z"
       id="path9378" />
    <path
       style="fill:#808080;stroke-width:0.149249"
       d="m 155.3938,76.226413 c -0.14778,-0.05963 -0.18656,-3.764002 -0.18656,-17.820647 V 40.660397 l 0.38428,-0.09645 c 0.21136,-0.05305 2.27659,-0.06002 4.58941,-0.01548 4.69371,0.09037 5.35582,0.191569 7.15334,1.093383 1.55409,0.779687 3.15338,2.430703 3.97181,4.100274 0.88954,1.814632 1.12949,2.871473 1.11531,4.912286 -0.0138,1.994726 -0.39606,3.428349 -1.35261,5.073526 -0.70507,1.212665 -2.40967,2.923664 -3.48078,3.493854 -0.44767,0.238313 -0.83144,0.446093 -0.85281,0.46173 -0.0214,0.01564 1.26695,3.713043 2.86293,8.216456 1.59599,4.503414 2.8688,8.241408 2.82848,8.306657 -0.12645,0.204586 -4.29524,0.142655 -4.57262,-0.06793 -0.17951,-0.136277 -5.63203,-15.075006 -5.63203,-15.43054 0,-0.02973 -0.63804,-0.05406 -1.41787,-0.05406 h -1.41786 v 7.656481 c 0,5.756042 -0.0445,7.700936 -0.1791,7.83558 -0.17789,0.177887 -3.40314,0.245766 -3.81332,0.08026 z m 9.26044,-20.346349 c 1.1011,-0.41632 2.2835,-1.552382 2.87574,-2.763049 0.40376,-0.825379 0.43806,-1.024044 0.43806,-2.537238 0,-1.513192 -0.0343,-1.711857 -0.43806,-2.537235 -0.59053,-1.207177 -1.77408,-2.34565 -2.87574,-2.766227 -0.7012,-0.267692 -1.2824,-0.344781 -3.0666,-0.406738 l -2.20142,-0.07645 v 5.788051 5.788052 l 2.20142,-0.08103 c 1.76433,-0.06494 2.37321,-0.145976 3.0666,-0.408141 z"
       id="path9417" />
  </g>
</svg>
