<?xml version="1.0" encoding="UTF-8" standalone="no"?>
<!-- Created with Inkscape (http://www.inkscape.org/) -->

<svg
   width="75mm"
   height="77mm"
   viewBox="0 0 75 77"
   version="1.1"
   id="svg1810"
   inkscape:version="1.1.1 (3bf5ae0d25, 2021-09-20)"
   sodipodi:docname="logo-square.svg"
   xmlns:inkscape="http://www.inkscape.org/namespaces/inkscape"
   xmlns:sodipodi="http://sodipodi.sourceforge.net/DTD/sodipodi-0.dtd"
   xmlns="http://www.w3.org/2000/svg"
   xmlns:svg="http://www.w3.org/2000/svg">
  <sodipodi:namedview
     id="namedview1812"
     pagecolor="#ffffff"
     bordercolor="#666666"
     borderopacity="1.0"
     inkscape:pageshadow="2"
     inkscape:pageopacity="0.0"
     inkscape:pagecheckerboard="0"
     inkscape:document-units="mm"
     showgrid="false"
     inkscape:snap-global="false"
     inkscape:zoom="0.76960915"
     inkscape:cx="189.057"
     inkscape:cy="155.27362"
     inkscape:window-width="1920"
     inkscape:window-height="1001"
     inkscape:window-x="-9"
     inkscape:window-y="-9"
     inkscape:window-maximized="1"
     inkscape:current-layer="layer1" />
  <defs
     id="defs1807" />
  <g
     inkscape:label="Layer 1"
     inkscape:groupmode="layer"
     id="layer1">
    <rect
       style="fill:#000000;stroke-width:0.163304"
       id="rect1306"
       width="75.977417"
       height="78.040154"
       x="-0.34378922"
       y="0.34378919"
       rx="0.24971789" />
    <path
       style="fill:#f9f9f9;stroke-width:0.202719"
       d="m 2.2825692,75.609149 c -0.274034,-0.06029 -0.344181,-7.552981 -0.344181,-36.762605 0,-33.315962 0.04001,-36.695211 0.435537,-36.77748 0.57541,-0.119686 45.7793448,-0.117658 46.8840648,0.0021 0.78094,0.08466 1.1584,0.382258 4.35396,3.43273 1.9244,1.837019 3.56857,3.3378546 3.65373,3.3351906 0.0852,-0.0027 1.7169,-1.4970206 3.62611,-3.3207926 l 3.47128,-3.31595 4.44602,-0.04101 4.44602,-0.04101 -0.07,17.727037 -0.07,17.727035 -3.786,0.04153 -3.786,0.04152 V 23.773058 c 0,-7.636412 -0.0929,-13.8829784 -0.20651,-13.8812624 -0.11359,0.0017 -1.94118,1.6784354 -4.06134,3.7260414 -2.12016,2.047602 -3.91686,3.725251 -3.99267,3.728106 -0.0758,0.0029 -1.87243,-1.65362 -3.99251,-3.68105 L 49.4354,9.9786506 49.3652,24.939744 49.295,39.900836 l 0.6594,0.329271 c 0.36268,0.181097 2.10436,1.722882 3.87043,3.426187 1.76607,1.703308 3.30261,3.096922 3.41453,3.096922 0.11191,0 1.73878,-1.460775 3.61525,-3.24617 1.87647,-1.785393 3.54413,-3.296473 3.70591,-3.35796 0.16178,-0.06148 2.15274,-0.09506 4.42434,-0.07462 l 4.13018,0.03717 0.07,17.595363 c 0.0512,12.878715 -0.0131,17.649674 -0.24023,17.797962 -0.22774,0.148749 -1.13686,0.202597 -3.42043,0.202597 -1.71063,0 -3.30623,-0.04077 -3.54578,-0.09059 -0.3928,-0.0817 -0.43553,-1.443559 -0.43553,-13.880171 0,-7.584268 -0.10513,-13.789578 -0.23362,-13.789578 -0.1285,0 -1.95272,1.645473 -4.05384,3.656605 -2.10113,2.011132 -3.90367,3.656603 -4.00566,3.656603 -0.10198,0 -1.90199,-1.644743 -4.00001,-3.654986 l -3.81458,-3.654986 -0.13769,13.84124 -0.13766,13.84124 -23.266697,0.02598 c -12.79668,0.01429 -23.4215718,-0.0081 -23.6108718,-0.04975 z M 41.03744,57.872279 V 40.634003 H 25.480426 9.9234053 V 57.872279 75.110555 H 25.480426 41.03744 Z M 8.8123372,73.926375 c 0.4440101,-0.449704 0.3509641,-1.981858 -0.143605,-2.364589 -0.368279,-0.285009 -0.680955,-0.331708 -2.220859,-0.331708 -2.673493,0 -2.857412,0.09081 -2.857412,1.410912 0,1.607463 -0.0559,1.574072 2.635552,1.574072 1.993412,0 2.339423,-0.03862 2.586324,-0.288687 z m 39.0990528,0 c 0.44402,-0.449704 0.35097,-1.981858 -0.1436,-2.364589 -0.37585,-0.290862 -0.67421,-0.331708 -2.42305,-0.331708 -1.18408,0 -2.12865,0.07277 -2.32482,0.179099 -0.19902,0.107879 -0.33041,0.630164 -0.33041,1.313392 0,0.683231 0.13139,1.205516 0.33041,1.313394 0.20025,0.108545 1.17266,0.179099 2.46843,0.179099 1.83198,0 2.1788,-0.04132 2.42303,-0.288687 z M 8.8288412,68.160755 c 0.4170901,-0.59464 0.3254151,-1.894707 -0.160098,-2.270437 -0.375848,-0.290862 -0.674208,-0.331708 -2.423038,-0.331708 -1.184079,0 -2.128655,0.07277 -2.324822,0.179099 -0.441452,0.239287 -0.441452,2.3875 0,2.626786 0.200685,0.108781 1.176321,0.179099 2.484923,0.179099 2.059372,0 2.166367,-0.01691 2.423042,-0.382839 z m 39.0825488,0.09415 c 0.46126,-0.467167 0.35807,-2.187641 -0.14764,-2.461762 -0.53528,-0.290142 -4.23113,-0.333333 -4.74381,-0.05544 -0.19902,0.107879 -0.33042,0.630164 -0.33042,1.313392 0,0.683231 0.13139,1.205516 0.33042,1.313394 0.20025,0.108545 1.17265,0.179099 2.46842,0.179099 1.83198,0 2.1788,-0.04132 2.42304,-0.288687 z M 8.5245292,62.662716 c 0.203348,-0.132807 0.291215,-0.665099 0.240227,-1.455179 l -0.0804,-1.245769 -2.160028,-0.04384 c -1.355542,-0.02752 -2.304133,0.02098 -2.546946,0.130209 -0.49656,0.223382 -0.542661,2.381374 -0.05651,2.644894 0.482537,0.261557 4.194194,0.23712 4.603654,-0.03031 z M 47.7678,62.540418 c 0.48551,-0.375729 0.57719,-1.675797 0.1601,-2.270437 -0.25668,-0.365932 -0.36367,-0.382839 -2.42305,-0.382839 -1.30859,0 -2.28423,0.07032 -2.48492,0.179099 -0.19902,0.107879 -0.33042,0.630163 -0.33042,1.313394 0,0.683229 0.1314,1.205513 0.33042,1.313392 0.19617,0.106331 1.14074,0.179099 2.32482,0.179099 1.74883,0 2.04719,-0.04085 2.42305,-0.331708 z M 8.6687362,56.86895 c 0.4945651,-0.38273 0.5876111,-1.914885 0.143604,-2.364589 -0.246901,-0.250066 -0.592912,-0.288687 -2.586324,-0.288687 -2.691088,0 -2.635551,-0.03312 -2.635551,1.571908 0,1.322618 0.158216,1.402014 2.806676,1.408538 1.59758,0.0039 1.900041,-0.03963 2.271598,-0.32717 z M 47.64574,56.90216 c 0.43772,-0.237267 0.55069,-0.497498 0.55069,-1.268618 0,-1.320232 -0.45238,-1.567117 -2.87146,-1.567117 -2.37648,0 -2.63546,0.15399 -2.63546,1.567117 0,1.413126 0.25898,1.567116 2.63546,1.567116 1.40295,0 1.88429,-0.06191 2.32077,-0.298498 z M 8.7647562,50.059546 c 0.05099,-0.79008 -0.03686,-1.322369 -0.240227,-1.455179 -0.40946,-0.26743 -4.121116,-0.291867 -4.603653,-0.03031 -0.356444,0.19321 -0.474396,2.528843 -0.136945,2.711754 0.106412,0.05768 1.252533,0.08566 2.546944,0.06219 l 2.353476,-0.04268 z M 47.9279,50.997102 c 0.41709,-0.59464 0.32541,-1.894707 -0.1601,-2.270437 -0.37586,-0.290862 -0.67422,-0.331708 -2.42305,-0.331708 -1.18408,0 -2.12865,0.07277 -2.32482,0.179099 -0.19902,0.107879 -0.33042,0.630164 -0.33042,1.313395 0,0.683228 0.1314,1.205513 0.33042,1.313391 0.20069,0.108781 1.17633,0.179099 2.48492,0.179099 2.05938,0 2.16637,-0.01691 2.42305,-0.382839 z M 8.5245292,45.499063 c 0.203348,-0.132807 0.291215,-0.665099 0.240227,-1.455179 l -0.0804,-1.245769 -2.160028,-0.04384 c -1.355542,-0.02752 -2.304133,0.02098 -2.546946,0.130209 -0.49656,0.223383 -0.542661,2.381374 -0.05651,2.644894 0.482537,0.261557 4.194194,0.23712 4.603654,-0.03031 z m 39.0990608,0 c 0.20334,-0.132807 0.29121,-0.665099 0.24022,-1.455179 l -0.0804,-1.245769 -2.16003,-0.04384 c -1.35554,-0.02752 -2.30413,0.02098 -2.54695,0.130209 -0.49655,0.223383 -0.54265,2.381374 -0.0565,2.644894 0.48254,0.261557 4.1942,0.23712 4.60366,-0.03031 z M 8.3685422,39.847624 c 0.40085,-0.158877 0.464765,-0.393252 0.396808,-1.455179 l -0.08101,-1.265798 h -2.478109 -2.478109 l -0.08101,1.265798 c -0.09761,1.525543 0.08758,1.64456 2.55911,1.64456 0.926471,0 1.899504,-0.08522 2.1623,-0.189381 z M 41.2178,37.998544 c -0.0992,-1.121153 -0.18035,-9.55 -0.18035,-18.730769 V 2.575468 H 25.480426 9.9234053 V 21.306236 40.037005 H 25.660782 41.39816 Z m 6.17069,1.88396 c 0.46189,-0.133993 0.53259,-0.321503 0.53259,-1.412615 0,-1.476502 -0.15124,-1.567117 -2.61578,-1.567117 -2.46388,0 -2.61579,0.09088 -2.61579,1.564952 0,1.038691 0.0833,1.282266 0.48186,1.408079 0.63192,0.199501 3.53659,0.20412 4.21712,0.0067 z M 8.7653502,32.875864 c 0.09885,-1.544666 -0.06721,-1.64456 -2.733794,-1.64456 -1.609086,0 -1.916836,0.04462 -2.28781,0.331708 -0.487568,0.377317 -0.576619,1.676615 -0.156003,2.276269 0.268564,0.382884 0.308533,0.38803 2.684618,0.345527 l 2.411997,-0.04315 z m 39.0984598,0.02003 c 0.051,-0.79008 -0.0369,-1.322369 -0.24022,-1.455179 -0.40947,-0.26743 -4.12112,-0.291865 -4.60366,-0.03031 -0.35644,0.19321 -0.4744,2.528843 -0.13694,2.711755 0.10641,0.05768 1.25253,0.08566 2.54694,0.06219 l 2.35348,-0.04268 z M 8.4916062,28.365721 c 0.441454,-0.239286 0.441454,-2.387497 0,-2.626783 -0.342993,-0.185917 -3.679379,-0.252045 -4.465608,-0.08851 -0.348114,0.07241 -0.435537,0.336039 -0.435537,1.313394 0,0.752067 0.127204,1.291746 0.330415,1.401897 0.194938,0.105667 1.131974,0.179099 2.285365,0.179099 1.153392,0 2.090428,-0.07343 2.285365,-0.179099 z m 39.0990638,0 c 0.34377,-0.186341 0.46788,-2.139545 0.16329,-2.569802 -0.13132,-0.185487 -0.59855,-0.23608 -2.18024,-0.23608 -2.93777,0 -2.8842,-0.02609 -2.8842,1.403985 0,0.752067 0.12721,1.291746 0.33042,1.401897 0.19494,0.105667 1.13197,0.179099 2.28537,0.179099 1.15339,0 2.09043,-0.07343 2.28537,-0.179099 z M 8.2894362,22.718854 c 0.456531,-0.13244 0.531985,-0.318926 0.528373,-1.30593 -0.0024,-0.633288 -0.105859,-1.238277 -0.230096,-1.344425 -0.162589,-0.138917 -0.875062,-0.180737 -2.542728,-0.149249 l -2.316852,0.04374 -0.0804,1.245772 c -0.05099,0.79008 0.03688,1.322369 0.240225,1.455179 0.384012,0.250807 3.588386,0.29078 4.401481,0.05491 z m 39.0990538,0 c 0.46235,-0.134125 0.53259,-0.321606 0.53259,-1.421561 0,-1.22278 -0.0247,-1.272149 -0.70629,-1.412616 -0.38845,-0.08006 -1.24773,-0.145555 -1.90949,-0.145555 -0.66176,0 -1.52104,0.0655 -1.9095,0.145555 -0.68147,0.140438 -0.70629,0.189995 -0.70629,1.410449 0,1.04721 0.0829,1.291077 0.48186,1.417024 0.63192,0.199501 3.53659,0.20412 4.21712,0.0067 z M 8.4916062,16.873536 c 0.441454,-0.239286 0.441454,-2.387499 0,-2.626783 -0.196165,-0.106331 -1.140741,-0.179099 -2.324819,-0.179099 -2.460424,0 -2.851673,0.210672 -2.851673,1.535512 0,1.352857 0.180502,1.449469 2.708073,1.449469 1.295767,0 2.268167,-0.07055 2.468419,-0.179099 z m 39.0990638,0 c 0.19902,-0.107878 0.33041,-0.630163 0.33041,-1.313391 0,-0.683231 -0.13139,-1.205516 -0.33041,-1.313392 -0.19617,-0.106331 -1.14074,-0.179099 -2.32483,-0.179099 -1.74882,0 -2.04718,0.04084 -2.42304,0.331705 -0.48551,0.37573 -0.57719,1.6758 -0.1601,2.270438 0.25668,0.365934 0.36367,0.382838 2.42304,0.382838 1.3086,0 2.28424,-0.07032 2.48493,-0.179099 z M 8.4916062,11.202069 c 0.441454,-0.239286 0.441454,-2.3874994 0,-2.6267844 -0.200252,-0.108545 -1.172652,-0.179099 -2.468419,-0.179099 -2.553204,0 -2.708073,0.08845 -2.708073,1.546643 0,1.2953884 0.28382,1.4383394 2.855726,1.4383394 1.180925,0 2.124726,-0.07283 2.320766,-0.179099 z m 39.0990638,0 c 0.19902,-0.107878 0.33041,-0.630163 0.33041,-1.3133924 0,-0.68323 -0.13139,-1.205514 -0.33041,-1.313392 -0.20026,-0.108545 -1.17266,-0.179099 -2.46843,-0.179099 -2.5532,0 -2.70807,0.08845 -2.70807,1.546643 0,1.2953884 0.28382,1.4383394 2.85573,1.4383394 1.18092,0 2.12472,-0.07283 2.32077,-0.179099 z M 8.3893352,5.475166 c 0.535281,-0.290144 0.6149571,-2.293452 0.10228,-2.57135 -0.199021,-0.107878 -1.162568,-0.179099 -2.423036,-0.179099 -1.260471,0 -2.224018,0.07122 -2.423041,0.179099 -0.196044,0.106264 -0.330415,0.617845 -0.330415,1.257957 0,1.4061 0.252284,1.547927 2.753456,1.547927 1.34931,0 2.01155,-0.06693 2.320766,-0.234534 z m 39.0990648,0 C 48.02367,5.185022 48.10335,3.181714 47.59068,2.903816 47.39165,2.795938 46.4281,2.724717 45.16763,2.724717 c -1.26047,0 -2.22402,0.07122 -2.42304,0.179099 -0.19604,0.106264 -0.33041,0.617845 -0.33041,1.257957 0,1.4061 0.25228,1.547927 2.75345,1.547927 1.34931,0 2.01156,-0.06693 2.32077,-0.234534 z"
       id="path154" />
  </g>
</svg>
